<svg id="my-svg" width="100%" xmlns="http://www.w3.org/2000/svg" xmlns:xlink="http://www.w3.org/1999/xlink" style="max-width: 700px; background-color: white;" viewBox="0 0 700 500" role="graphics-document document" aria-roledescription="xychart"><style>#my-svg{font-family:"trebuchet ms",verdana,arial,sans-serif;font-size:16px;fill:#333;}@keyframes edge-animation-frame{from{stroke-dashoffset:0;}}@keyframes dash{to{stroke-dashoffset:0;}}#my-svg .edge-animation-slow{stroke-dasharray:9,5!important;stroke-dashoffset:900;animation:dash 50s linear infinite;stroke-linecap:round;}#my-svg .edge-animation-fast{stroke-dasharray:9,5!important;stroke-dashoffset:900;animation:dash 20s linear infinite;stroke-linecap:round;}#my-svg .error-icon{fill:#552222;}#my-svg .error-text{fill:#552222;stroke:#552222;}#my-svg .edge-thickness-normal{stroke-width:1px;}#my-svg .edge-thickness-thick{stroke-width:3.5px;}#my-svg .edge-pattern-solid{stroke-dasharray:0;}#my-svg .edge-thickness-invisible{stroke-width:0;fill:none;}#my-svg .edge-pattern-dashed{stroke-dasharray:3;}#my-svg .edge-pattern-dotted{stroke-dasharray:2;}#my-svg .marker{fill:#333333;stroke:#333333;}#my-svg .marker.cross{stroke:#333333;}#my-svg svg{font-family:"trebuchet ms",verdana,arial,sans-serif;font-size:16px;}#my-svg p{margin:0;}#my-svg :root{--mermaid-font-family:"trebuchet ms",verdana,arial,sans-serif;}</style><g/><g class="main"><rect width="700" height="500" class="background" fill="white"/><g class="chart-title"><text x="0" y="0" fill="#131300" font-size="20" dominant-baseline="middle" text-anchor="middle" transform="translate(350, 21.5) rotate(0)">Umwelt &amp; Raumplanungskosten pro Person</text></g><g class="plot"><g class="line-plot-0"><path d="M83.696,148.92L133.804,91.8L183.911,71.4L234.019,83.64L284.127,83.64L334.234,79.56L384.342,132.6L434.449,59.16L484.557,173.4L534.665,234.6L584.772,238.68L634.88,242.76L684.987,267.24" fill="none" stroke="#ECECFF" stroke-width="2"/></g></g><g class="bottom-axis"><g class="axis-line"><path d="M 68.68359565734863,468 L 700,468" fill="none" stroke="#131300" stroke-width="2"/></g><g class="label"><text x="0" y="0" fill="#131300" font-size="14" dominant-baseline="text-before-edge" text-anchor="middle" transform="translate(83.69629096984863, 479) rotate(0)">2012</text><text x="0" y="0" fill="#131300" font-size="14" dominant-baseline="text-before-edge" text-anchor="middle" transform="translate(133.80387544631958, 479) rotate(0)">2013</text><text x="0" y="0" fill="#131300" font-size="14" dominant-baseline="text-before-edge" text-anchor="middle" transform="translate(183.91145992279053, 479) rotate(0)">2014</text><text x="0" y="0" fill="#131300" font-size="14" dominant-baseline="text-before-edge" text-anchor="middle" transform="translate(234.01904439926147, 479) rotate(0)">2015</text><text x="0" y="0" fill="#131300" font-size="14" dominant-baseline="text-before-edge" text-anchor="middle" transform="translate(284.1266288757324, 479) rotate(0)">2016</text><text x="0" y="0" fill="#131300" font-size="14" dominant-baseline="text-before-edge" text-anchor="middle" transform="translate(334.23421335220337, 479) rotate(0)">2017</text><text x="0" y="0" fill="#131300" font-size="14" dominant-baseline="text-before-edge" text-anchor="middle" transform="translate(384.3417978286743, 479) rotate(0)">2018</text><text x="0" y="0" fill="#131300" font-size="14" dominant-baseline="text-before-edge" text-anchor="middle" transform="translate(434.44938230514526, 479) rotate(0)">2019</text><text x="0" y="0" fill="#131300" font-size="14" dominant-baseline="text-before-edge" text-anchor="middle" transform="translate(484.5569667816162, 479) rotate(0)">2020</text><text x="0" y="0" fill="#131300" font-size="14" dominant-baseline="text-before-edge" text-anchor="middle" transform="translate(534.6645512580872, 479) rotate(0)">2021</text><text x="0" y="0" fill="#131300" font-size="14" dominant-baseline="text-before-edge" text-anchor="middle" transform="translate(584.7721357345581, 479) rotate(0)">2022</text><text x="0" y="0" fill="#131300" font-size="14" dominant-baseline="text-before-edge" text-anchor="middle" transform="translate(634.879720211029, 479) rotate(0)">2023</text><text x="0" y="0" fill="#131300" font-size="14" dominant-baseline="text-before-edge" text-anchor="middle" transform="translate(684.9873046875, 479) rotate(0)">2024</text></g><g class="ticks"><path d="M 83.69629096984863,469 L 83.69629096984863,474" fill="none" stroke="#131300" stroke-width="2"/><path d="M 133.80387544631958,469 L 133.80387544631958,474" fill="none" stroke="#131300" stroke-width="2"/><path d="M 183.91145992279053,469 L 183.91145992279053,474" fill="none" stroke="#131300" stroke-width="2"/><path d="M 234.01904439926147,469 L 234.01904439926147,474" fill="none" stroke="#131300" stroke-width="2"/><path d="M 284.1266288757324,469 L 284.1266288757324,474" fill="none" stroke="#131300" stroke-width="2"/><path d="M 334.23421335220337,469 L 334.23421335220337,474" fill="none" stroke="#131300" stroke-width="2"/><path d="M 384.3417978286743,469 L 384.3417978286743,474" fill="none" stroke="#131300" stroke-width="2"/><path d="M 434.44938230514526,469 L 434.44938230514526,474" fill="none" stroke="#131300" stroke-width="2"/><path d="M 484.5569667816162,469 L 484.5569667816162,474" fill="none" stroke="#131300" stroke-width="2"/><path d="M 534.6645512580872,469 L 534.6645512580872,474" fill="none" stroke="#131300" stroke-width="2"/><path d="M 584.7721357345581,469 L 584.7721357345581,474" fill="none" stroke="#131300" stroke-width="2"/><path d="M 634.879720211029,469 L 634.879720211029,474" fill="none" stroke="#131300" stroke-width="2"/><path d="M 684.9873046875,469 L 684.9873046875,474" fill="none" stroke="#131300" stroke-width="2"/></g></g><g class="left-axis"><g class="axisl-line"><path d="M 67.68359565734863,43 L 67.68359565734863,467" fill="none" stroke="#131300" stroke-width="2"/></g><g class="label"><text x="0" y="0" fill="#131300" font-size="14" dominant-baseline="middle" text-anchor="end" transform="translate(56.68359565734863, 51) rotate(0)">100</text><text x="0" y="0" fill="#131300" font-size="14" dominant-baseline="middle" text-anchor="end" transform="translate(56.68359565734863, 91.79999999999998) rotate(0)">90</text><text x="0" y="0" fill="#131300" font-size="14" dominant-baseline="middle" text-anchor="end" transform="translate(56.68359565734863, 132.6) rotate(0)">80</text><text x="0" y="0" fill="#131300" font-size="14" dominant-baseline="middle" text-anchor="end" transform="translate(56.68359565734863, 173.4) rotate(0)">70</text><text x="0" y="0" fill="#131300" font-size="14" dominant-baseline="middle" text-anchor="end" transform="translate(56.68359565734863, 214.20000000000002) rotate(0)">60</text><text x="0" y="0" fill="#131300" font-size="14" dominant-baseline="middle" text-anchor="end" transform="translate(56.68359565734863, 255) rotate(0)">50</text><text x="0" y="0" fill="#131300" font-size="14" dominant-baseline="middle" text-anchor="end" transform="translate(56.68359565734863, 295.79999999999995) rotate(0)">40</text><text x="0" y="0" fill="#131300" font-size="14" dominant-baseline="middle" text-anchor="end" transform="translate(56.68359565734863, 336.59999999999997) rotate(0)">30</text><text x="0" y="0" fill="#131300" font-size="14" dominant-baseline="middle" text-anchor="end" transform="translate(56.68359565734863, 377.40000000000003) rotate(0)">20</text><text x="0" y="0" fill="#131300" font-size="14" dominant-baseline="middle" text-anchor="end" transform="translate(56.68359565734863, 418.20000000000005) rotate(0)">10</text><text x="0" y="0" fill="#131300" font-size="14" dominant-baseline="middle" text-anchor="end" transform="translate(56.68359565734863, 459) rotate(0)">0</text></g><g class="ticks"><path d="M 66.68359565734863,51 L 61.68359565734863,51" fill="none" stroke="#131300" stroke-width="2"/><path d="M 66.68359565734863,91.79999999999998 L 61.68359565734863,91.79999999999998" fill="none" stroke="#131300" stroke-width="2"/><path d="M 66.68359565734863,132.6 L 61.68359565734863,132.6" fill="none" stroke="#131300" stroke-width="2"/><path d="M 66.68359565734863,173.4 L 61.68359565734863,173.4" fill="none" stroke="#131300" stroke-width="2"/><path d="M 66.68359565734863,214.20000000000002 L 61.68359565734863,214.20000000000002" fill="none" stroke="#131300" stroke-width="2"/><path d="M 66.68359565734863,255 L 61.68359565734863,255" fill="none" stroke="#131300" stroke-width="2"/><path d="M 66.68359565734863,295.79999999999995 L 61.68359565734863,295.79999999999995" fill="none" stroke="#131300" stroke-width="2"/><path d="M 66.68359565734863,336.59999999999997 L 61.68359565734863,336.59999999999997" fill="none" stroke="#131300" stroke-width="2"/><path d="M 66.68359565734863,377.40000000000003 L 61.68359565734863,377.40000000000003" fill="none" stroke="#131300" stroke-width="2"/><path d="M 66.68359565734863,418.20000000000005 L 61.68359565734863,418.20000000000005" fill="none" stroke="#131300" stroke-width="2"/><path d="M 66.68359565734863,459 L 61.68359565734863,459" fill="none" stroke="#131300" stroke-width="2"/></g><g class="title"><text x="0" y="0" fill="#131300" font-size="16" dominant-baseline="text-before-edge" text-anchor="middle" transform="translate(5, 255) rotate(270)">CHF pro Person</text></g></g></g><g class="mermaid-tmp-group"/></svg>