<svg id="my-svg" width="100%" xmlns="http://www.w3.org/2000/svg" xmlns:xlink="http://www.w3.org/1999/xlink" style="max-width: 700px; background-color: white;" viewBox="0 0 700 500" role="graphics-document document" aria-roledescription="xychart"><style>#my-svg{font-family:"trebuchet ms",verdana,arial,sans-serif;font-size:16px;fill:#333;}@keyframes edge-animation-frame{from{stroke-dashoffset:0;}}@keyframes dash{to{stroke-dashoffset:0;}}#my-svg .edge-animation-slow{stroke-dasharray:9,5!important;stroke-dashoffset:900;animation:dash 50s linear infinite;stroke-linecap:round;}#my-svg .edge-animation-fast{stroke-dasharray:9,5!important;stroke-dashoffset:900;animation:dash 20s linear infinite;stroke-linecap:round;}#my-svg .error-icon{fill:#552222;}#my-svg .error-text{fill:#552222;stroke:#552222;}#my-svg .edge-thickness-normal{stroke-width:1px;}#my-svg .edge-thickness-thick{stroke-width:3.5px;}#my-svg .edge-pattern-solid{stroke-dasharray:0;}#my-svg .edge-thickness-invisible{stroke-width:0;fill:none;}#my-svg .edge-pattern-dashed{stroke-dasharray:3;}#my-svg .edge-pattern-dotted{stroke-dasharray:2;}#my-svg .marker{fill:#333333;stroke:#333333;}#my-svg .marker.cross{stroke:#333333;}#my-svg svg{font-family:"trebuchet ms",verdana,arial,sans-serif;font-size:16px;}#my-svg p{margin:0;}#my-svg .node .neo-node{stroke:#9370DB;}#my-svg [data-look="neo"].node rect,#my-svg [data-look="neo"].cluster rect,#my-svg [data-look="neo"].node polygon{stroke:#9370DB;filter:drop-shadow(1px 2px 2px rgba(185, 185, 185, 1));}#my-svg [data-look="neo"].node path{stroke:#9370DB;stroke-width:1px;}#my-svg [data-look="neo"].node .outer-path{filter:drop-shadow(1px 2px 2px rgba(185, 185, 185, 1));}#my-svg [data-look="neo"].node .neo-line path{stroke:#9370DB;filter:none;}#my-svg [data-look="neo"].node circle{stroke:#9370DB;filter:drop-shadow(1px 2px 2px rgba(185, 185, 185, 1));}#my-svg [data-look="neo"].node circle .state-start{fill:#000000;}#my-svg [data-look="neo"].icon-shape .icon{fill:#9370DB;filter:drop-shadow(1px 2px 2px rgba(185, 185, 185, 1));}#my-svg [data-look="neo"].icon-shape .icon-neo path{stroke:#9370DB;filter:drop-shadow(1px 2px 2px rgba(185, 185, 185, 1));}#my-svg :root{--mermaid-font-family:"trebuchet ms",verdana,arial,sans-serif;}</style><g/><g class="main"><rect width="700" height="500" class="background" fill="white"/><g class="chart-title"><text x="0" y="0" fill="#131300" font-size="20" dominant-baseline="middle" text-anchor="middle" transform="translate(350, 21) rotate(0)">Umwelt &amp; Raumplanungskosten pro Person</text></g><g class="plot"><g class="line-plot-0"><path d="M83.251,148.16L133.341,90.9L183.43,70.45L233.519,82.72L283.608,82.72L333.697,78.63L383.786,131.8L433.875,58.18L483.964,172.7L534.053,234.05L584.143,238.14L634.232,242.23L684.321,266.77" fill="none" stroke="#ECECFF" stroke-width="2"/></g></g><g class="bottom-axis"><g class="axis-line"><path d="M 67.57226753234863,468 L 700,468" fill="none" stroke="#131300" stroke-width="2"/></g><g class="label"><text x="0" y="0" fill="#131300" font-size="14" dominant-baseline="text-before-edge" text-anchor="middle" transform="translate(83.25146675109863, 479) rotate(0)">2012</text><text x="0" y="0" fill="#131300" font-size="14" dominant-baseline="text-before-edge" text-anchor="middle" transform="translate(133.34057792027792, 479) rotate(0)">2013</text><text x="0" y="0" fill="#131300" font-size="14" dominant-baseline="text-before-edge" text-anchor="middle" transform="translate(183.4296890894572, 479) rotate(0)">2014</text><text x="0" y="0" fill="#131300" font-size="14" dominant-baseline="text-before-edge" text-anchor="middle" transform="translate(233.51880025863647, 479) rotate(0)">2015</text><text x="0" y="0" fill="#131300" font-size="14" dominant-baseline="text-before-edge" text-anchor="middle" transform="translate(283.6079114278158, 479) rotate(0)">2016</text><text x="0" y="0" fill="#131300" font-size="14" dominant-baseline="text-before-edge" text-anchor="middle" transform="translate(333.69702259699505, 479) rotate(0)">2017</text><text x="0" y="0" fill="#131300" font-size="14" dominant-baseline="text-before-edge" text-anchor="middle" transform="translate(383.7861337661743, 479) rotate(0)">2018</text><text x="0" y="0" fill="#131300" font-size="14" dominant-baseline="text-before-edge" text-anchor="middle" transform="translate(433.87524493535363, 479) rotate(0)">2019</text><text x="0" y="0" fill="#131300" font-size="14" dominant-baseline="text-before-edge" text-anchor="middle" transform="translate(483.9643561045329, 479) rotate(0)">2020</text><text x="0" y="0" fill="#131300" font-size="14" dominant-baseline="text-before-edge" text-anchor="middle" transform="translate(534.0534672737122, 479) rotate(0)">2021</text><text x="0" y="0" fill="#131300" font-size="14" dominant-baseline="text-before-edge" text-anchor="middle" transform="translate(584.1425784428915, 479) rotate(0)">2022</text><text x="0" y="0" fill="#131300" font-size="14" dominant-baseline="text-before-edge" text-anchor="middle" transform="translate(634.2316896120708, 479) rotate(0)">2023</text><text x="0" y="0" fill="#131300" font-size="14" dominant-baseline="text-before-edge" text-anchor="middle" transform="translate(684.32080078125, 479) rotate(0)">2024</text></g><g class="ticks"><path d="M 83.25146675109863,469 L 83.25146675109863,474" fill="none" stroke="#131300" stroke-width="2"/><path d="M 133.34057792027792,469 L 133.34057792027792,474" fill="none" stroke="#131300" stroke-width="2"/><path d="M 183.4296890894572,469 L 183.4296890894572,474" fill="none" stroke="#131300" stroke-width="2"/><path d="M 233.51880025863647,469 L 233.51880025863647,474" fill="none" stroke="#131300" stroke-width="2"/><path d="M 283.6079114278158,469 L 283.6079114278158,474" fill="none" stroke="#131300" stroke-width="2"/><path d="M 333.69702259699505,469 L 333.69702259699505,474" fill="none" stroke="#131300" stroke-width="2"/><path d="M 383.7861337661743,469 L 383.7861337661743,474" fill="none" stroke="#131300" stroke-width="2"/><path d="M 433.87524493535363,469 L 433.87524493535363,474" fill="none" stroke="#131300" stroke-width="2"/><path d="M 483.9643561045329,469 L 483.9643561045329,474" fill="none" stroke="#131300" stroke-width="2"/><path d="M 534.0534672737122,469 L 534.0534672737122,474" fill="none" stroke="#131300" stroke-width="2"/><path d="M 584.1425784428915,469 L 584.1425784428915,474" fill="none" stroke="#131300" stroke-width="2"/><path d="M 634.2316896120708,469 L 634.2316896120708,474" fill="none" stroke="#131300" stroke-width="2"/><path d="M 684.32080078125,469 L 684.32080078125,474" fill="none" stroke="#131300" stroke-width="2"/></g></g><g class="left-axis"><g class="axisl-line"><path d="M 66.57226753234863,42 L 66.57226753234863,467" fill="none" stroke="#131300" stroke-width="2"/></g><g class="label"><text x="0" y="0" fill="#131300" font-size="14" dominant-baseline="middle" text-anchor="end" transform="translate(55.57226753234863, 50) rotate(0)">100</text><text x="0" y="0" fill="#131300" font-size="14" dominant-baseline="middle" text-anchor="end" transform="translate(55.57226753234863, 90.89999999999999) rotate(0)">90</text><text x="0" y="0" fill="#131300" font-size="14" dominant-baseline="middle" text-anchor="end" transform="translate(55.57226753234863, 131.79999999999998) rotate(0)">80</text><text x="0" y="0" fill="#131300" font-size="14" dominant-baseline="middle" text-anchor="end" transform="translate(55.57226753234863, 172.70000000000002) rotate(0)">70</text><text x="0" y="0" fill="#131300" font-size="14" dominant-baseline="middle" text-anchor="end" transform="translate(55.57226753234863, 213.60000000000002) rotate(0)">60</text><text x="0" y="0" fill="#131300" font-size="14" dominant-baseline="middle" text-anchor="end" transform="translate(55.57226753234863, 254.5) rotate(0)">50</text><text x="0" y="0" fill="#131300" font-size="14" dominant-baseline="middle" text-anchor="end" transform="translate(55.57226753234863, 295.4) rotate(0)">40</text><text x="0" y="0" fill="#131300" font-size="14" dominant-baseline="middle" text-anchor="end" transform="translate(55.57226753234863, 336.29999999999995) rotate(0)">30</text><text x="0" y="0" fill="#131300" font-size="14" dominant-baseline="middle" text-anchor="end" transform="translate(55.57226753234863, 377.20000000000005) rotate(0)">20</text><text x="0" y="0" fill="#131300" font-size="14" dominant-baseline="middle" text-anchor="end" transform="translate(55.57226753234863, 418.1) rotate(0)">10</text><text x="0" y="0" fill="#131300" font-size="14" dominant-baseline="middle" text-anchor="end" transform="translate(55.57226753234863, 459) rotate(0)">0</text></g><g class="ticks"><path d="M 65.57226753234863,50 L 60.57226753234863,50" fill="none" stroke="#131300" stroke-width="2"/><path d="M 65.57226753234863,90.89999999999999 L 60.57226753234863,90.89999999999999" fill="none" stroke="#131300" stroke-width="2"/><path d="M 65.57226753234863,131.79999999999998 L 60.57226753234863,131.79999999999998" fill="none" stroke="#131300" stroke-width="2"/><path d="M 65.57226753234863,172.70000000000002 L 60.57226753234863,172.70000000000002" fill="none" stroke="#131300" stroke-width="2"/><path d="M 65.57226753234863,213.60000000000002 L 60.57226753234863,213.60000000000002" fill="none" stroke="#131300" stroke-width="2"/><path d="M 65.57226753234863,254.5 L 60.57226753234863,254.5" fill="none" stroke="#131300" stroke-width="2"/><path d="M 65.57226753234863,295.4 L 60.57226753234863,295.4" fill="none" stroke="#131300" stroke-width="2"/><path d="M 65.57226753234863,336.29999999999995 L 60.57226753234863,336.29999999999995" fill="none" stroke="#131300" stroke-width="2"/><path d="M 65.57226753234863,377.20000000000005 L 60.57226753234863,377.20000000000005" fill="none" stroke="#131300" stroke-width="2"/><path d="M 65.57226753234863,418.1 L 60.57226753234863,418.1" fill="none" stroke="#131300" stroke-width="2"/><path d="M 65.57226753234863,459 L 60.57226753234863,459" fill="none" stroke="#131300" stroke-width="2"/></g><g class="title"><text x="0" y="0" fill="#131300" font-size="16" dominant-baseline="text-before-edge" text-anchor="middle" transform="translate(5, 254.5) rotate(270)">CHF pro Person</text></g></g></g><g class="mermaid-tmp-group"/></svg>