<svg id="my-svg" width="100%" xmlns="http://www.w3.org/2000/svg" xmlns:xlink="http://www.w3.org/1999/xlink" style="max-width: 700px; background-color: white;" viewBox="0 0 700 500" role="graphics-document document" aria-roledescription="xychart"><style>#my-svg{font-family:"trebuchet ms",verdana,arial,sans-serif;font-size:16px;fill:#333;}@keyframes edge-animation-frame{from{stroke-dashoffset:0;}}@keyframes dash{to{stroke-dashoffset:0;}}#my-svg .edge-animation-slow{stroke-dasharray:9,5!important;stroke-dashoffset:900;animation:dash 50s linear infinite;stroke-linecap:round;}#my-svg .edge-animation-fast{stroke-dasharray:9,5!important;stroke-dashoffset:900;animation:dash 20s linear infinite;stroke-linecap:round;}#my-svg .error-icon{fill:#552222;}#my-svg .error-text{fill:#552222;stroke:#552222;}#my-svg .edge-thickness-normal{stroke-width:1px;}#my-svg .edge-thickness-thick{stroke-width:3.5px;}#my-svg .edge-pattern-solid{stroke-dasharray:0;}#my-svg .edge-thickness-invisible{stroke-width:0;fill:none;}#my-svg .edge-pattern-dashed{stroke-dasharray:3;}#my-svg .edge-pattern-dotted{stroke-dasharray:2;}#my-svg .marker{fill:#333333;stroke:#333333;}#my-svg .marker.cross{stroke:#333333;}#my-svg svg{font-family:"trebuchet ms",verdana,arial,sans-serif;font-size:16px;}#my-svg p{margin:0;}#my-svg :root{--mermaid-font-family:"trebuchet ms",verdana,arial,sans-serif;}</style><g/><g class="main"><rect width="700" height="500" class="background" fill="white"/><g class="chart-title"><text x="0" y="0" fill="#131300" font-size="20" dominant-baseline="middle" text-anchor="middle" transform="translate(350, 21.5) rotate(0)">Verkehrskosten pro Person</text></g><g class="plot"><g class="line-plot-0"><path d="M84.696,325.473L134.721,323.247L184.745,297.284L234.769,62.869L284.793,217.909L334.818,242.389L384.842,167.465L434.866,341.793L484.89,386.302L534.915,351.436L584.939,407.073L634.963,408.556L684.987,398.171" fill="none" stroke="#ECECFF" stroke-width="2"/></g></g><g class="bottom-axis"><g class="axis-line"><path d="M 69.68359565734863,468 L 700,468" fill="none" stroke="#131300" stroke-width="2"/></g><g class="label"><text x="0" y="0" fill="#131300" font-size="14" dominant-baseline="text-before-edge" text-anchor="middle" transform="translate(84.69629096984863, 479) rotate(0)">2012</text><text x="0" y="0" fill="#131300" font-size="14" dominant-baseline="text-before-edge" text-anchor="middle" transform="translate(134.72054211298624, 479) rotate(0)">2013</text><text x="0" y="0" fill="#131300" font-size="14" dominant-baseline="text-before-edge" text-anchor="middle" transform="translate(184.74479325612384, 479) rotate(0)">2014</text><text x="0" y="0" fill="#131300" font-size="14" dominant-baseline="text-before-edge" text-anchor="middle" transform="translate(234.76904439926147, 479) rotate(0)">2015</text><text x="0" y="0" fill="#131300" font-size="14" dominant-baseline="text-before-edge" text-anchor="middle" transform="translate(284.79329554239905, 479) rotate(0)">2016</text><text x="0" y="0" fill="#131300" font-size="14" dominant-baseline="text-before-edge" text-anchor="middle" transform="translate(334.8175466855367, 479) rotate(0)">2017</text><text x="0" y="0" fill="#131300" font-size="14" dominant-baseline="text-before-edge" text-anchor="middle" transform="translate(384.8417978286743, 479) rotate(0)">2018</text><text x="0" y="0" fill="#131300" font-size="14" dominant-baseline="text-before-edge" text-anchor="middle" transform="translate(434.8660489718119, 479) rotate(0)">2019</text><text x="0" y="0" fill="#131300" font-size="14" dominant-baseline="text-before-edge" text-anchor="middle" transform="translate(484.8903001149495, 479) rotate(0)">2020</text><text x="0" y="0" fill="#131300" font-size="14" dominant-baseline="text-before-edge" text-anchor="middle" transform="translate(534.9145512580872, 479) rotate(0)">2021</text><text x="0" y="0" fill="#131300" font-size="14" dominant-baseline="text-before-edge" text-anchor="middle" transform="translate(584.9388024012247, 479) rotate(0)">2022</text><text x="0" y="0" fill="#131300" font-size="14" dominant-baseline="text-before-edge" text-anchor="middle" transform="translate(634.9630535443623, 479) rotate(0)">2023</text><text x="0" y="0" fill="#131300" font-size="14" dominant-baseline="text-before-edge" text-anchor="middle" transform="translate(684.9873046875, 479) rotate(0)">2024</text></g><g class="ticks"><path d="M 84.69629096984863,469 L 84.69629096984863,474" fill="none" stroke="#131300" stroke-width="2"/><path d="M 134.72054211298624,469 L 134.72054211298624,474" fill="none" stroke="#131300" stroke-width="2"/><path d="M 184.74479325612384,469 L 184.74479325612384,474" fill="none" stroke="#131300" stroke-width="2"/><path d="M 234.76904439926147,469 L 234.76904439926147,474" fill="none" stroke="#131300" stroke-width="2"/><path d="M 284.79329554239905,469 L 284.79329554239905,474" fill="none" stroke="#131300" stroke-width="2"/><path d="M 334.8175466855367,469 L 334.8175466855367,474" fill="none" stroke="#131300" stroke-width="2"/><path d="M 384.8417978286743,469 L 384.8417978286743,474" fill="none" stroke="#131300" stroke-width="2"/><path d="M 434.8660489718119,469 L 434.8660489718119,474" fill="none" stroke="#131300" stroke-width="2"/><path d="M 484.8903001149495,469 L 484.8903001149495,474" fill="none" stroke="#131300" stroke-width="2"/><path d="M 534.9145512580872,469 L 534.9145512580872,474" fill="none" stroke="#131300" stroke-width="2"/><path d="M 584.9388024012247,469 L 584.9388024012247,474" fill="none" stroke="#131300" stroke-width="2"/><path d="M 634.9630535443623,469 L 634.9630535443623,474" fill="none" stroke="#131300" stroke-width="2"/><path d="M 684.9873046875,469 L 684.9873046875,474" fill="none" stroke="#131300" stroke-width="2"/></g></g><g class="left-axis"><g class="axisl-line"><path d="M 68.68359565734863,43 L 68.68359565734863,467" fill="none" stroke="#131300" stroke-width="2"/></g><g class="label"><text x="0" y="0" fill="#131300" font-size="14" dominant-baseline="middle" text-anchor="end" transform="translate(57.68359565734863, 51) rotate(0)">550</text><text x="0" y="0" fill="#131300" font-size="14" dominant-baseline="middle" text-anchor="end" transform="translate(57.68359565734863, 88.0909090909091) rotate(0)">500</text><text x="0" y="0" fill="#131300" font-size="14" dominant-baseline="middle" text-anchor="end" transform="translate(57.68359565734863, 125.18181818181816) rotate(0)">450</text><text x="0" y="0" fill="#131300" font-size="14" dominant-baseline="middle" text-anchor="end" transform="translate(57.68359565734863, 162.27272727272725) rotate(0)">400</text><text x="0" y="0" fill="#131300" font-size="14" dominant-baseline="middle" text-anchor="end" transform="translate(57.68359565734863, 199.36363636363637) rotate(0)">350</text><text x="0" y="0" fill="#131300" font-size="14" dominant-baseline="middle" text-anchor="end" transform="translate(57.68359565734863, 236.45454545454547) rotate(0)">300</text><text x="0" y="0" fill="#131300" font-size="14" dominant-baseline="middle" text-anchor="end" transform="translate(57.68359565734863, 273.5454545454545) rotate(0)">250</text><text x="0" y="0" fill="#131300" font-size="14" dominant-baseline="middle" text-anchor="end" transform="translate(57.68359565734863, 310.6363636363636) rotate(0)">200</text><text x="0" y="0" fill="#131300" font-size="14" dominant-baseline="middle" text-anchor="end" transform="translate(57.68359565734863, 347.72727272727275) rotate(0)">150</text><text x="0" y="0" fill="#131300" font-size="14" dominant-baseline="middle" text-anchor="end" transform="translate(57.68359565734863, 384.81818181818176) rotate(0)">100</text><text x="0" y="0" fill="#131300" font-size="14" dominant-baseline="middle" text-anchor="end" transform="translate(57.68359565734863, 421.9090909090909) rotate(0)">50</text><text x="0" y="0" fill="#131300" font-size="14" dominant-baseline="middle" text-anchor="end" transform="translate(57.68359565734863, 459) rotate(0)">0</text></g><g class="ticks"><path d="M 67.68359565734863,51 L 62.68359565734863,51" fill="none" stroke="#131300" stroke-width="2"/><path d="M 67.68359565734863,88.0909090909091 L 62.68359565734863,88.0909090909091" fill="none" stroke="#131300" stroke-width="2"/><path d="M 67.68359565734863,125.18181818181816 L 62.68359565734863,125.18181818181816" fill="none" stroke="#131300" stroke-width="2"/><path d="M 67.68359565734863,162.27272727272725 L 62.68359565734863,162.27272727272725" fill="none" stroke="#131300" stroke-width="2"/><path d="M 67.68359565734863,199.36363636363637 L 62.68359565734863,199.36363636363637" fill="none" stroke="#131300" stroke-width="2"/><path d="M 67.68359565734863,236.45454545454547 L 62.68359565734863,236.45454545454547" fill="none" stroke="#131300" stroke-width="2"/><path d="M 67.68359565734863,273.5454545454545 L 62.68359565734863,273.5454545454545" fill="none" stroke="#131300" stroke-width="2"/><path d="M 67.68359565734863,310.6363636363636 L 62.68359565734863,310.6363636363636" fill="none" stroke="#131300" stroke-width="2"/><path d="M 67.68359565734863,347.72727272727275 L 62.68359565734863,347.72727272727275" fill="none" stroke="#131300" stroke-width="2"/><path d="M 67.68359565734863,384.81818181818176 L 62.68359565734863,384.81818181818176" fill="none" stroke="#131300" stroke-width="2"/><path d="M 67.68359565734863,421.9090909090909 L 62.68359565734863,421.9090909090909" fill="none" stroke="#131300" stroke-width="2"/><path d="M 67.68359565734863,459 L 62.68359565734863,459" fill="none" stroke="#131300" stroke-width="2"/></g><g class="title"><text x="0" y="0" fill="#131300" font-size="16" dominant-baseline="text-before-edge" text-anchor="middle" transform="translate(5, 255) rotate(270)">CHF pro Person</text></g></g></g><g class="mermaid-tmp-group"/></svg>