<svg id="my-svg" width="100%" xmlns="http://www.w3.org/2000/svg" xmlns:xlink="http://www.w3.org/1999/xlink" viewBox="0 0 728.390625 450" style="max-width: 728.391px; background-color: white;" role="graphics-document document" aria-roledescription="pie"><style>#my-svg{font-family:"trebuchet ms",verdana,arial,sans-serif;font-size:16px;fill:#333;}@keyframes edge-animation-frame{from{stroke-dashoffset:0;}}@keyframes dash{to{stroke-dashoffset:0;}}#my-svg .edge-animation-slow{stroke-dasharray:9,5!important;stroke-dashoffset:900;animation:dash 50s linear infinite;stroke-linecap:round;}#my-svg .edge-animation-fast{stroke-dasharray:9,5!important;stroke-dashoffset:900;animation:dash 20s linear infinite;stroke-linecap:round;}#my-svg .error-icon{fill:#552222;}#my-svg .error-text{fill:#552222;stroke:#552222;}#my-svg .edge-thickness-normal{stroke-width:1px;}#my-svg .edge-thickness-thick{stroke-width:3.5px;}#my-svg .edge-pattern-solid{stroke-dasharray:0;}#my-svg .edge-thickness-invisible{stroke-width:0;fill:none;}#my-svg .edge-pattern-dashed{stroke-dasharray:3;}#my-svg .edge-pattern-dotted{stroke-dasharray:2;}#my-svg .marker{fill:#333333;stroke:#333333;}#my-svg .marker.cross{stroke:#333333;}#my-svg svg{font-family:"trebuchet ms",verdana,arial,sans-serif;font-size:16px;}#my-svg p{margin:0;}#my-svg .pieCircle{stroke:black;stroke-width:2px;opacity:0.7;}#my-svg .pieOuterCircle{stroke:black;stroke-width:2px;fill:none;}#my-svg .pieTitleText{text-anchor:middle;font-size:25px;fill:black;font-family:"trebuchet ms",verdana,arial,sans-serif;}#my-svg .slice{font-family:"trebuchet ms",verdana,arial,sans-serif;fill:#333;font-size:17px;}#my-svg .legend text{fill:black;font-family:"trebuchet ms",verdana,arial,sans-serif;font-size:17px;}#my-svg .node .neo-node{stroke:#9370DB;}#my-svg [data-look="neo"].node rect,#my-svg [data-look="neo"].cluster rect,#my-svg [data-look="neo"].node polygon{stroke:#9370DB;filter:drop-shadow(1px 2px 2px rgba(185, 185, 185, 1));}#my-svg [data-look="neo"].node path{stroke:#9370DB;stroke-width:1px;}#my-svg [data-look="neo"].node .outer-path{filter:drop-shadow(1px 2px 2px rgba(185, 185, 185, 1));}#my-svg [data-look="neo"].node .neo-line path{stroke:#9370DB;filter:none;}#my-svg [data-look="neo"].node circle{stroke:#9370DB;filter:drop-shadow(1px 2px 2px rgba(185, 185, 185, 1));}#my-svg [data-look="neo"].node circle .state-start{fill:#000000;}#my-svg [data-look="neo"].icon-shape .icon{fill:#9370DB;filter:drop-shadow(1px 2px 2px rgba(185, 185, 185, 1));}#my-svg [data-look="neo"].icon-shape .icon-neo path{stroke:#9370DB;filter:drop-shadow(1px 2px 2px rgba(185, 185, 185, 1));}#my-svg :root{--mermaid-font-family:"trebuchet ms",verdana,arial,sans-serif;}</style><g/><g transform="translate(225,225)"><circle cx="0" cy="0" r="186" class="pieOuterCircle"/><path d="M0,-185A185,185,0,0,1,97.619,157.148L0,0Z" fill="#ECECFF" class="pieCircle"/><path d="M97.619,157.148A185,185,0,0,1,-119.291,141.403L0,0Z" fill="#ffffde" class="pieCircle"/><path d="M-119.291,141.403A185,185,0,0,1,-184.906,-5.908L0,0Z" fill="hsl(80, 100%, 56.2745098039%)" class="pieCircle"/><path d="M-184.906,-5.908A185,185,0,0,1,-180.665,-39.814L0,0Z" fill="hsl(240, 100%, 86.2745098039%)" class="pieCircle"/><path d="M-180.665,-39.814A185,185,0,0,1,-164.089,-85.439L0,0Z" fill="hsl(60, 100%, 63.5294117647%)" class="pieCircle"/><path d="M-164.089,-85.439A185,185,0,0,1,-99.857,-155.736L0,0Z" fill="hsl(80, 100%, 76.2745098039%)" class="pieCircle"/><path d="M-99.857,-155.736A185,185,0,0,1,-47.1,-178.904L0,0Z" fill="hsl(300, 100%, 76.2745098039%)" class="pieCircle"/><path d="M-47.1,-178.904A185,185,0,0,1,-12.69,-184.564L0,0Z" fill="hsl(180, 100%, 56.2745098039%)" class="pieCircle"/><path d="M-12.69,-184.564A185,185,0,0,1,0,-185L0,0Z" fill="hsl(0, 100%, 56.2745098039%)" class="pieCircle"/><text transform="translate(133.42558794106156,-38.068030978526366)" class="slice" style="text-anchor: middle;">41%</text><text transform="translate(-10.045253799367377,138.38589298084648)" class="slice" style="text-anchor: middle;">20%</text><text transform="translate(-126.74546277363562,56.454850688819896)" class="slice" style="text-anchor: middle;">14%</text><text transform="translate(-137.67736351639473,-17.21935176406189)" class="slice" style="text-anchor: middle;">3%</text><text transform="translate(-130.40997926639696,-47.37931835450901)" class="slice" style="text-anchor: middle;">4%</text><text transform="translate(-102.42994731954754,-93.59310013091091)" class="slice" style="text-anchor: middle;">8%</text><text transform="translate(-55.789432786780296,-127.03976420526497)" class="slice" style="text-anchor: middle;">5%</text><text transform="translate(-22.521525689622376,-136.90998276463145)" class="slice" style="text-anchor: middle;">3%</text><text transform="translate(-4.761509629277087,-138.66827512466685)" class="slice" style="text-anchor: middle;">1%</text><text x="0" y="-200" class="pieTitleText"/><g class="legend" transform="translate(216,-99)"><rect width="18" height="18" style="fill: rgb(236, 236, 255); stroke: rgb(236, 236, 255);"/><text x="22" y="14">Bildung [1356]</text></g><g class="legend" transform="translate(216,-77)"><rect width="18" height="18" style="fill: rgb(255, 255, 222); stroke: rgb(255, 255, 222);"/><text x="22" y="14">Soziale Wohlfart [659]</text></g><g class="legend" transform="translate(216,-55)"><rect width="18" height="18" style="fill: rgb(181, 255, 32); stroke: rgb(181, 255, 32);"/><text x="22" y="14">Verwaltung [473]</text></g><g class="legend" transform="translate(216,-33)"><rect width="18" height="18" style="fill: rgb(185, 185, 255); stroke: rgb(185, 185, 255);"/><text x="22" y="14">Gesundheit [97]</text></g><g class="legend" transform="translate(216,-11)"><rect width="18" height="18" style="fill: rgb(255, 255, 69); stroke: rgb(255, 255, 69);"/><text x="22" y="14">Kultur&amp;Freizeit [138]</text></g><g class="legend" transform="translate(216,11)"><rect width="18" height="18" style="fill: rgb(215, 255, 134); stroke: rgb(215, 255, 134);"/><text x="22" y="14">Verkehr [273]</text></g><g class="legend" transform="translate(216,33)"><rect width="18" height="18" style="fill: rgb(255, 134, 255); stroke: rgb(255, 134, 255);"/><text x="22" y="14">Öff. Sicherheit [164]</text></g><g class="legend" transform="translate(216,55)"><rect width="18" height="18" style="fill: rgb(32, 255, 255); stroke: rgb(32, 255, 255);"/><text x="22" y="14">Umwelt &amp; Raumplanung [99]</text></g><g class="legend" transform="translate(216,77)"><rect width="18" height="18" style="fill: rgb(255, 32, 32); stroke: rgb(255, 32, 32);"/><text x="22" y="14">Volkswirtschaft [36]</text></g></g></svg>