<svg id="my-svg" width="100%" xmlns="http://www.w3.org/2000/svg" xmlns:xlink="http://www.w3.org/1999/xlink" style="max-width: 700px; background-color: white;" viewBox="0 0 700 500" role="graphics-document document" aria-roledescription="xychart"><style>#my-svg{font-family:"trebuchet ms",verdana,arial,sans-serif;font-size:16px;fill:#333;}@keyframes edge-animation-frame{from{stroke-dashoffset:0;}}@keyframes dash{to{stroke-dashoffset:0;}}#my-svg .edge-animation-slow{stroke-dasharray:9,5!important;stroke-dashoffset:900;animation:dash 50s linear infinite;stroke-linecap:round;}#my-svg .edge-animation-fast{stroke-dasharray:9,5!important;stroke-dashoffset:900;animation:dash 20s linear infinite;stroke-linecap:round;}#my-svg .error-icon{fill:#552222;}#my-svg .error-text{fill:#552222;stroke:#552222;}#my-svg .edge-thickness-normal{stroke-width:1px;}#my-svg .edge-thickness-thick{stroke-width:3.5px;}#my-svg .edge-pattern-solid{stroke-dasharray:0;}#my-svg .edge-thickness-invisible{stroke-width:0;fill:none;}#my-svg .edge-pattern-dashed{stroke-dasharray:3;}#my-svg .edge-pattern-dotted{stroke-dasharray:2;}#my-svg .marker{fill:#333333;stroke:#333333;}#my-svg .marker.cross{stroke:#333333;}#my-svg svg{font-family:"trebuchet ms",verdana,arial,sans-serif;font-size:16px;}#my-svg p{margin:0;}#my-svg :root{--mermaid-font-family:"trebuchet ms",verdana,arial,sans-serif;}</style><g/><g class="main"><rect width="700" height="500" class="background" fill="white"/><g class="chart-title"><text x="0" y="0" fill="#131300" font-size="20" dominant-baseline="middle" text-anchor="middle" transform="translate(350, 22) rotate(0)">Fremdkapital</text></g><g class="plot"><g class="line-plot-0"><path d="M81.689,72.248L231.802,68.87L381.914,94.928L532.027,110.689L682.139,80.917" fill="none" stroke="#ECECFF" stroke-width="2"/></g></g><g class="bottom-axis"><g class="axis-line"><path d="M 63.82812690734863,468 L 700,468" fill="none" stroke="#131300" stroke-width="2"/></g><g class="label"><text x="0" y="0" fill="#131300" font-size="14" dominant-baseline="text-before-edge" text-anchor="middle" transform="translate(81.68896675109863, 479) rotate(0)">2020</text><text x="0" y="0" fill="#131300" font-size="14" dominant-baseline="text-before-edge" text-anchor="middle" transform="translate(231.80151510238647, 479) rotate(0)">2021</text><text x="0" y="0" fill="#131300" font-size="14" dominant-baseline="text-before-edge" text-anchor="middle" transform="translate(381.9140634536743, 479) rotate(0)">2022</text><text x="0" y="0" fill="#131300" font-size="14" dominant-baseline="text-before-edge" text-anchor="middle" transform="translate(532.0266118049622, 479) rotate(0)">2023</text><text x="0" y="0" fill="#131300" font-size="14" dominant-baseline="text-before-edge" text-anchor="middle" transform="translate(682.13916015625, 479) rotate(0)">2024</text></g><g class="ticks"><path d="M 81.68896675109863,469 L 81.68896675109863,474" fill="none" stroke="#131300" stroke-width="2"/><path d="M 231.80151510238647,469 L 231.80151510238647,474" fill="none" stroke="#131300" stroke-width="2"/><path d="M 381.9140634536743,469 L 381.9140634536743,474" fill="none" stroke="#131300" stroke-width="2"/><path d="M 532.0266118049622,469 L 532.0266118049622,474" fill="none" stroke="#131300" stroke-width="2"/><path d="M 682.13916015625,469 L 682.13916015625,474" fill="none" stroke="#131300" stroke-width="2"/></g></g><g class="left-axis"><g class="axisl-line"><path d="M 62.82812690734863,44 L 62.82812690734863,467" fill="none" stroke="#131300" stroke-width="2"/></g><g class="label"><text x="0" y="0" fill="#131300" font-size="14" dominant-baseline="middle" text-anchor="end" transform="translate(51.82812690734863, 52) rotate(0)">40</text><text x="0" y="0" fill="#131300" font-size="14" dominant-baseline="middle" text-anchor="end" transform="translate(51.82812690734863, 102.875) rotate(0)">35</text><text x="0" y="0" fill="#131300" font-size="14" dominant-baseline="middle" text-anchor="end" transform="translate(51.82812690734863, 153.75) rotate(0)">30</text><text x="0" y="0" fill="#131300" font-size="14" dominant-baseline="middle" text-anchor="end" transform="translate(51.82812690734863, 204.625) rotate(0)">25</text><text x="0" y="0" fill="#131300" font-size="14" dominant-baseline="middle" text-anchor="end" transform="translate(51.82812690734863, 255.5) rotate(0)">20</text><text x="0" y="0" fill="#131300" font-size="14" dominant-baseline="middle" text-anchor="end" transform="translate(51.82812690734863, 306.375) rotate(0)">15</text><text x="0" y="0" fill="#131300" font-size="14" dominant-baseline="middle" text-anchor="end" transform="translate(51.82812690734863, 357.25) rotate(0)">10</text><text x="0" y="0" fill="#131300" font-size="14" dominant-baseline="middle" text-anchor="end" transform="translate(51.82812690734863, 408.125) rotate(0)">5</text><text x="0" y="0" fill="#131300" font-size="14" dominant-baseline="middle" text-anchor="end" transform="translate(51.82812690734863, 459) rotate(0)">0</text></g><g class="ticks"><path d="M 61.82812690734863,52 L 56.82812690734863,52" fill="none" stroke="#131300" stroke-width="2"/><path d="M 61.82812690734863,102.875 L 56.82812690734863,102.875" fill="none" stroke="#131300" stroke-width="2"/><path d="M 61.82812690734863,153.75 L 56.82812690734863,153.75" fill="none" stroke="#131300" stroke-width="2"/><path d="M 61.82812690734863,204.625 L 56.82812690734863,204.625" fill="none" stroke="#131300" stroke-width="2"/><path d="M 61.82812690734863,255.5 L 56.82812690734863,255.5" fill="none" stroke="#131300" stroke-width="2"/><path d="M 61.82812690734863,306.375 L 56.82812690734863,306.375" fill="none" stroke="#131300" stroke-width="2"/><path d="M 61.82812690734863,357.25 L 56.82812690734863,357.25" fill="none" stroke="#131300" stroke-width="2"/><path d="M 61.82812690734863,408.125 L 56.82812690734863,408.125" fill="none" stroke="#131300" stroke-width="2"/><path d="M 61.82812690734863,459 L 56.82812690734863,459" fill="none" stroke="#131300" stroke-width="2"/></g><g class="title"><text x="0" y="0" fill="#131300" font-size="16" dominant-baseline="text-before-edge" text-anchor="middle" transform="translate(5, 255.5) rotate(270)">Millionen CHF</text></g></g></g><g class="mermaid-tmp-group"/></svg>