<svg id="my-svg" width="100%" xmlns="http://www.w3.org/2000/svg" xmlns:xlink="http://www.w3.org/1999/xlink" viewBox="0 0 730.546875 450" style="max-width: 730.547px; background-color: white;" role="graphics-document document" aria-roledescription="pie"><style>#my-svg{font-family:"trebuchet ms",verdana,arial,sans-serif;font-size:16px;fill:#333;}@keyframes edge-animation-frame{from{stroke-dashoffset:0;}}@keyframes dash{to{stroke-dashoffset:0;}}#my-svg .edge-animation-slow{stroke-dasharray:9,5!important;stroke-dashoffset:900;animation:dash 50s linear infinite;stroke-linecap:round;}#my-svg .edge-animation-fast{stroke-dasharray:9,5!important;stroke-dashoffset:900;animation:dash 20s linear infinite;stroke-linecap:round;}#my-svg .error-icon{fill:#552222;}#my-svg .error-text{fill:#552222;stroke:#552222;}#my-svg .edge-thickness-normal{stroke-width:1px;}#my-svg .edge-thickness-thick{stroke-width:3.5px;}#my-svg .edge-pattern-solid{stroke-dasharray:0;}#my-svg .edge-thickness-invisible{stroke-width:0;fill:none;}#my-svg .edge-pattern-dashed{stroke-dasharray:3;}#my-svg .edge-pattern-dotted{stroke-dasharray:2;}#my-svg .marker{fill:#333333;stroke:#333333;}#my-svg .marker.cross{stroke:#333333;}#my-svg svg{font-family:"trebuchet ms",verdana,arial,sans-serif;font-size:16px;}#my-svg p{margin:0;}#my-svg .pieCircle{stroke:black;stroke-width:2px;opacity:0.7;}#my-svg .pieOuterCircle{stroke:black;stroke-width:2px;fill:none;}#my-svg .pieTitleText{text-anchor:middle;font-size:25px;fill:black;font-family:"trebuchet ms",verdana,arial,sans-serif;}#my-svg .slice{font-family:"trebuchet ms",verdana,arial,sans-serif;fill:#333;font-size:17px;}#my-svg .legend text{fill:black;font-family:"trebuchet ms",verdana,arial,sans-serif;font-size:17px;}#my-svg :root{--mermaid-font-family:"trebuchet ms",verdana,arial,sans-serif;}</style><g/><g transform="translate(225,225)"><circle cx="0" cy="0" r="186" class="pieOuterCircle"/><path d="M0,-185A185,185,0,0,1,49.217,178.333L0,0Z" fill="#ECECFF" class="pieCircle"/><path d="M49.217,178.333A185,185,0,0,1,-145.45,114.322L0,0Z" fill="#ffffde" class="pieCircle"/><path d="M-145.45,114.322A185,185,0,0,1,-171.051,-70.473L0,0Z" fill="hsl(80, 100%, 56.2745098039%)" class="pieCircle"/><path d="M-171.051,-70.473A185,185,0,0,1,-119.17,-141.505L0,0Z" fill="hsl(240, 100%, 86.2745098039%)" class="pieCircle"/><path d="M-119.17,-141.505A185,185,0,0,1,-72.967,-170.002L0,0Z" fill="hsl(60, 100%, 63.5294117647%)" class="pieCircle"/><path d="M-72.967,-170.002A185,185,0,0,1,-43.981,-179.696L0,0Z" fill="hsl(80, 100%, 76.2745098039%)" class="pieCircle"/><path d="M-43.981,-179.696A185,185,0,0,1,-17.512,-184.169L0,0Z" fill="hsl(300, 100%, 76.2745098039%)" class="pieCircle"/><path d="M-17.512,-184.169A185,185,0,0,1,0,-185L0,0Z" fill="hsl(180, 100%, 56.2745098039%)" class="pieCircle"/><text transform="translate(137.49427944530095,-18.624865632199697)" class="slice" style="text-anchor: middle;">45%</text><text transform="translate(-43.341639560663914,131.80692235309)" class="slice" style="text-anchor: middle;">19%</text><text transform="translate(-137.4372986018388,19.04078393945492)" class="slice" style="text-anchor: middle;">17%</text><text transform="translate(-112.04512279334192,-81.83796770585724)" class="slice" style="text-anchor: middle;">8%</text><text transform="translate(-72.83939773500738,-118.09311850231326)" class="slice" style="text-anchor: middle;">5%</text><text transform="translate(-44.00574645358693,-131.58668921689087)" class="slice" style="text-anchor: middle;">3%</text><text transform="translate(-23.120766748823463,-136.8100604668622)" class="slice" style="text-anchor: middle;">2%</text><text transform="translate(-6.574459052934227,-138.59415207057364)" class="slice" style="text-anchor: middle;">2%</text><text x="0" y="-200" class="pieTitleText"/><g class="legend" transform="translate(216,-99)"><rect width="18" height="18" style="fill: rgb(236, 236, 255); stroke: rgb(236, 236, 255);"/><text x="22" y="14">Bildung [1424]</text></g><g class="legend" transform="translate(216,-77)"><rect width="18" height="18" style="fill: rgb(255, 255, 222); stroke: rgb(255, 255, 222);"/><text x="22" y="14">Soziale Wohlfart [582]</text></g><g class="legend" transform="translate(216,-55)"><rect width="18" height="18" style="fill: rgb(181, 255, 32); stroke: rgb(181, 255, 32);"/><text x="22" y="14">Verwaltung [524]</text></g><g class="legend" transform="translate(216,-33)"><rect width="18" height="18" style="fill: rgb(185, 185, 255); stroke: rgb(185, 185, 255);"/><text x="22" y="14">Gesundheit [238]</text></g><g class="legend" transform="translate(216,-11)"><rect width="18" height="18" style="fill: rgb(255, 255, 69); stroke: rgb(255, 255, 69);"/><text x="22" y="14">Kultur&amp;Freizeit [146]</text></g><g class="legend" transform="translate(216,11)"><rect width="18" height="18" style="fill: rgb(215, 255, 134); stroke: rgb(215, 255, 134);"/><text x="22" y="14">Verkehr [82]</text></g><g class="legend" transform="translate(216,33)"><rect width="18" height="18" style="fill: rgb(255, 134, 255); stroke: rgb(255, 134, 255);"/><text x="22" y="14">Öff. Sicherheit [72]</text></g><g class="legend" transform="translate(216,55)"><rect width="18" height="18" style="fill: rgb(32, 255, 255); stroke: rgb(32, 255, 255);"/><text x="22" y="14">Umwelt &amp; Raumplanung [47]</text></g><g class="legend" transform="translate(216,77)"><rect width="18" height="18" style="fill: rgb(255, 32, 32); stroke: rgb(255, 32, 32);"/><text x="22" y="14">Volkswirtschaft [17]</text></g></g></svg>