<svg id="my-svg" width="100%" xmlns="http://www.w3.org/2000/svg" xmlns:xlink="http://www.w3.org/1999/xlink" style="max-width: 700px; background-color: white;" viewBox="0 0 700 500" role="graphics-document document" aria-roledescription="xychart"><style>#my-svg{font-family:"trebuchet ms",verdana,arial,sans-serif;font-size:16px;fill:#333;}@keyframes edge-animation-frame{from{stroke-dashoffset:0;}}@keyframes dash{to{stroke-dashoffset:0;}}#my-svg .edge-animation-slow{stroke-dasharray:9,5!important;stroke-dashoffset:900;animation:dash 50s linear infinite;stroke-linecap:round;}#my-svg .edge-animation-fast{stroke-dasharray:9,5!important;stroke-dashoffset:900;animation:dash 20s linear infinite;stroke-linecap:round;}#my-svg .error-icon{fill:#552222;}#my-svg .error-text{fill:#552222;stroke:#552222;}#my-svg .edge-thickness-normal{stroke-width:1px;}#my-svg .edge-thickness-thick{stroke-width:3.5px;}#my-svg .edge-pattern-solid{stroke-dasharray:0;}#my-svg .edge-thickness-invisible{stroke-width:0;fill:none;}#my-svg .edge-pattern-dashed{stroke-dasharray:3;}#my-svg .edge-pattern-dotted{stroke-dasharray:2;}#my-svg .marker{fill:#333333;stroke:#333333;}#my-svg .marker.cross{stroke:#333333;}#my-svg svg{font-family:"trebuchet ms",verdana,arial,sans-serif;font-size:16px;}#my-svg p{margin:0;}#my-svg :root{--mermaid-font-family:"trebuchet ms",verdana,arial,sans-serif;}</style><g/><g class="main"><rect width="700" height="500" class="background" fill="white"/><g class="chart-title"><text x="0" y="0" fill="#131300" font-size="20" dominant-baseline="middle" text-anchor="middle" transform="translate(350, 22) rotate(0)">Verkehrskosten pro Person</text></g><g class="plot"><g class="line-plot-0"><path d="M90.595,325.8L139.891,323.58L189.186,297.68L238.481,63.84L287.777,218.5L337.072,242.92L386.367,168.18L435.663,342.08L484.958,386.48L534.253,351.7L583.549,407.2L632.844,408.68L682.139,398.32" fill="none" stroke="#ECECFF" stroke-width="2"/></g></g><g class="bottom-axis"><g class="axis-line"><path d="M 72.73437690734863,468 L 700,468" fill="none" stroke="#131300" stroke-width="2"/></g><g class="label"><text x="0" y="0" fill="#131300" font-size="14" dominant-baseline="text-before-edge" text-anchor="middle" transform="translate(90.59521675109863, 479) rotate(0)">2012</text><text x="0" y="0" fill="#131300" font-size="14" dominant-baseline="text-before-edge" text-anchor="middle" transform="translate(139.89054536819458, 479) rotate(0)">2013</text><text x="0" y="0" fill="#131300" font-size="14" dominant-baseline="text-before-edge" text-anchor="middle" transform="translate(189.18587398529053, 479) rotate(0)">2014</text><text x="0" y="0" fill="#131300" font-size="14" dominant-baseline="text-before-edge" text-anchor="middle" transform="translate(238.48120260238647, 479) rotate(0)">2015</text><text x="0" y="0" fill="#131300" font-size="14" dominant-baseline="text-before-edge" text-anchor="middle" transform="translate(287.7765312194824, 479) rotate(0)">2016</text><text x="0" y="0" fill="#131300" font-size="14" dominant-baseline="text-before-edge" text-anchor="middle" transform="translate(337.07185983657837, 479) rotate(0)">2017</text><text x="0" y="0" fill="#131300" font-size="14" dominant-baseline="text-before-edge" text-anchor="middle" transform="translate(386.3671884536743, 479) rotate(0)">2018</text><text x="0" y="0" fill="#131300" font-size="14" dominant-baseline="text-before-edge" text-anchor="middle" transform="translate(435.66251707077026, 479) rotate(0)">2019</text><text x="0" y="0" fill="#131300" font-size="14" dominant-baseline="text-before-edge" text-anchor="middle" transform="translate(484.9578456878662, 479) rotate(0)">2020</text><text x="0" y="0" fill="#131300" font-size="14" dominant-baseline="text-before-edge" text-anchor="middle" transform="translate(534.2531743049622, 479) rotate(0)">2021</text><text x="0" y="0" fill="#131300" font-size="14" dominant-baseline="text-before-edge" text-anchor="middle" transform="translate(583.5485029220581, 479) rotate(0)">2022</text><text x="0" y="0" fill="#131300" font-size="14" dominant-baseline="text-before-edge" text-anchor="middle" transform="translate(632.843831539154, 479) rotate(0)">2023</text><text x="0" y="0" fill="#131300" font-size="14" dominant-baseline="text-before-edge" text-anchor="middle" transform="translate(682.13916015625, 479) rotate(0)">2024</text></g><g class="ticks"><path d="M 90.59521675109863,469 L 90.59521675109863,474" fill="none" stroke="#131300" stroke-width="2"/><path d="M 139.89054536819458,469 L 139.89054536819458,474" fill="none" stroke="#131300" stroke-width="2"/><path d="M 189.18587398529053,469 L 189.18587398529053,474" fill="none" stroke="#131300" stroke-width="2"/><path d="M 238.48120260238647,469 L 238.48120260238647,474" fill="none" stroke="#131300" stroke-width="2"/><path d="M 287.7765312194824,469 L 287.7765312194824,474" fill="none" stroke="#131300" stroke-width="2"/><path d="M 337.07185983657837,469 L 337.07185983657837,474" fill="none" stroke="#131300" stroke-width="2"/><path d="M 386.3671884536743,469 L 386.3671884536743,474" fill="none" stroke="#131300" stroke-width="2"/><path d="M 435.66251707077026,469 L 435.66251707077026,474" fill="none" stroke="#131300" stroke-width="2"/><path d="M 484.9578456878662,469 L 484.9578456878662,474" fill="none" stroke="#131300" stroke-width="2"/><path d="M 534.2531743049622,469 L 534.2531743049622,474" fill="none" stroke="#131300" stroke-width="2"/><path d="M 583.5485029220581,469 L 583.5485029220581,474" fill="none" stroke="#131300" stroke-width="2"/><path d="M 632.843831539154,469 L 632.843831539154,474" fill="none" stroke="#131300" stroke-width="2"/><path d="M 682.13916015625,469 L 682.13916015625,474" fill="none" stroke="#131300" stroke-width="2"/></g></g><g class="left-axis"><g class="axisl-line"><path d="M 71.73437690734863,44 L 71.73437690734863,467" fill="none" stroke="#131300" stroke-width="2"/></g><g class="label"><text x="0" y="0" fill="#131300" font-size="14" dominant-baseline="middle" text-anchor="end" transform="translate(60.73437690734863, 52) rotate(0)">550</text><text x="0" y="0" fill="#131300" font-size="14" dominant-baseline="middle" text-anchor="end" transform="translate(60.73437690734863, 89.00000000000001) rotate(0)">500</text><text x="0" y="0" fill="#131300" font-size="14" dominant-baseline="middle" text-anchor="end" transform="translate(60.73437690734863, 125.99999999999997) rotate(0)">450</text><text x="0" y="0" fill="#131300" font-size="14" dominant-baseline="middle" text-anchor="end" transform="translate(60.73437690734863, 163) rotate(0)">400</text><text x="0" y="0" fill="#131300" font-size="14" dominant-baseline="middle" text-anchor="end" transform="translate(60.73437690734863, 200) rotate(0)">350</text><text x="0" y="0" fill="#131300" font-size="14" dominant-baseline="middle" text-anchor="end" transform="translate(60.73437690734863, 237) rotate(0)">300</text><text x="0" y="0" fill="#131300" font-size="14" dominant-baseline="middle" text-anchor="end" transform="translate(60.73437690734863, 274) rotate(0)">250</text><text x="0" y="0" fill="#131300" font-size="14" dominant-baseline="middle" text-anchor="end" transform="translate(60.73437690734863, 311) rotate(0)">200</text><text x="0" y="0" fill="#131300" font-size="14" dominant-baseline="middle" text-anchor="end" transform="translate(60.73437690734863, 348) rotate(0)">150</text><text x="0" y="0" fill="#131300" font-size="14" dominant-baseline="middle" text-anchor="end" transform="translate(60.73437690734863, 384.99999999999994) rotate(0)">100</text><text x="0" y="0" fill="#131300" font-size="14" dominant-baseline="middle" text-anchor="end" transform="translate(60.73437690734863, 422) rotate(0)">50</text><text x="0" y="0" fill="#131300" font-size="14" dominant-baseline="middle" text-anchor="end" transform="translate(60.73437690734863, 459) rotate(0)">0</text></g><g class="ticks"><path d="M 70.73437690734863,52 L 65.73437690734863,52" fill="none" stroke="#131300" stroke-width="2"/><path d="M 70.73437690734863,89.00000000000001 L 65.73437690734863,89.00000000000001" fill="none" stroke="#131300" stroke-width="2"/><path d="M 70.73437690734863,125.99999999999997 L 65.73437690734863,125.99999999999997" fill="none" stroke="#131300" stroke-width="2"/><path d="M 70.73437690734863,163 L 65.73437690734863,163" fill="none" stroke="#131300" stroke-width="2"/><path d="M 70.73437690734863,200 L 65.73437690734863,200" fill="none" stroke="#131300" stroke-width="2"/><path d="M 70.73437690734863,237 L 65.73437690734863,237" fill="none" stroke="#131300" stroke-width="2"/><path d="M 70.73437690734863,274 L 65.73437690734863,274" fill="none" stroke="#131300" stroke-width="2"/><path d="M 70.73437690734863,311 L 65.73437690734863,311" fill="none" stroke="#131300" stroke-width="2"/><path d="M 70.73437690734863,348 L 65.73437690734863,348" fill="none" stroke="#131300" stroke-width="2"/><path d="M 70.73437690734863,384.99999999999994 L 65.73437690734863,384.99999999999994" fill="none" stroke="#131300" stroke-width="2"/><path d="M 70.73437690734863,422 L 65.73437690734863,422" fill="none" stroke="#131300" stroke-width="2"/><path d="M 70.73437690734863,459 L 65.73437690734863,459" fill="none" stroke="#131300" stroke-width="2"/></g><g class="title"><text x="0" y="0" fill="#131300" font-size="16" dominant-baseline="text-before-edge" text-anchor="middle" transform="translate(5, 255.5) rotate(270)">CHF pro Person</text></g></g></g><g class="mermaid-tmp-group"/></svg>