<svg id="my-svg" width="100%" xmlns="http://www.w3.org/2000/svg" xmlns:xlink="http://www.w3.org/1999/xlink" style="max-width: 700px; background-color: white;" viewBox="0 0 700 500" role="graphics-document document" aria-roledescription="xychart"><style>#my-svg{font-family:"trebuchet ms",verdana,arial,sans-serif;font-size:16px;fill:#333;}@keyframes edge-animation-frame{from{stroke-dashoffset:0;}}@keyframes dash{to{stroke-dashoffset:0;}}#my-svg .edge-animation-slow{stroke-dasharray:9,5!important;stroke-dashoffset:900;animation:dash 50s linear infinite;stroke-linecap:round;}#my-svg .edge-animation-fast{stroke-dasharray:9,5!important;stroke-dashoffset:900;animation:dash 20s linear infinite;stroke-linecap:round;}#my-svg .error-icon{fill:#552222;}#my-svg .error-text{fill:#552222;stroke:#552222;}#my-svg .edge-thickness-normal{stroke-width:1px;}#my-svg .edge-thickness-thick{stroke-width:3.5px;}#my-svg .edge-pattern-solid{stroke-dasharray:0;}#my-svg .edge-thickness-invisible{stroke-width:0;fill:none;}#my-svg .edge-pattern-dashed{stroke-dasharray:3;}#my-svg .edge-pattern-dotted{stroke-dasharray:2;}#my-svg .marker{fill:#333333;stroke:#333333;}#my-svg .marker.cross{stroke:#333333;}#my-svg svg{font-family:"trebuchet ms",verdana,arial,sans-serif;font-size:16px;}#my-svg p{margin:0;}#my-svg :root{--mermaid-font-family:"trebuchet ms",verdana,arial,sans-serif;}</style><g/><g class="main"><rect width="700" height="500" class="background" fill="white"/><g class="chart-title"><text x="0" y="0" fill="#131300" font-size="20" dominant-baseline="middle" text-anchor="middle" transform="translate(350, 21.5) rotate(0)">Gesundheitskosten pro Person</text></g><g class="plot"><g class="line-plot-0"><path d="M83.696,189.72L234.019,168.504L384.342,201.144L534.665,175.032L684.987,72.216" fill="none" stroke="#ECECFF" stroke-width="2"/></g></g><g class="bottom-axis"><g class="axis-line"><path d="M 68.68359565734863,468 L 700,468" fill="none" stroke="#131300" stroke-width="2"/></g><g class="label"><text x="0" y="0" fill="#131300" font-size="14" dominant-baseline="text-before-edge" text-anchor="middle" transform="translate(83.69629096984863, 479) rotate(0)">2020</text><text x="0" y="0" fill="#131300" font-size="14" dominant-baseline="text-before-edge" text-anchor="middle" transform="translate(234.01904439926147, 479) rotate(0)">2021</text><text x="0" y="0" fill="#131300" font-size="14" dominant-baseline="text-before-edge" text-anchor="middle" transform="translate(384.3417978286743, 479) rotate(0)">2022</text><text x="0" y="0" fill="#131300" font-size="14" dominant-baseline="text-before-edge" text-anchor="middle" transform="translate(534.6645512580872, 479) rotate(0)">2023</text><text x="0" y="0" fill="#131300" font-size="14" dominant-baseline="text-before-edge" text-anchor="middle" transform="translate(684.9873046875, 479) rotate(0)">2024</text></g><g class="ticks"><path d="M 83.69629096984863,469 L 83.69629096984863,474" fill="none" stroke="#131300" stroke-width="2"/><path d="M 234.01904439926147,469 L 234.01904439926147,474" fill="none" stroke="#131300" stroke-width="2"/><path d="M 384.3417978286743,469 L 384.3417978286743,474" fill="none" stroke="#131300" stroke-width="2"/><path d="M 534.6645512580872,469 L 534.6645512580872,474" fill="none" stroke="#131300" stroke-width="2"/><path d="M 684.9873046875,469 L 684.9873046875,474" fill="none" stroke="#131300" stroke-width="2"/></g></g><g class="left-axis"><g class="axisl-line"><path d="M 67.68359565734863,43 L 67.68359565734863,467" fill="none" stroke="#131300" stroke-width="2"/></g><g class="label"><text x="0" y="0" fill="#131300" font-size="14" dominant-baseline="middle" text-anchor="end" transform="translate(56.68359565734863, 67.32000000000002) rotate(0)">240</text><text x="0" y="0" fill="#131300" font-size="14" dominant-baseline="middle" text-anchor="end" transform="translate(56.68359565734863, 99.96000000000001) rotate(0)">220</text><text x="0" y="0" fill="#131300" font-size="14" dominant-baseline="middle" text-anchor="end" transform="translate(56.68359565734863, 132.6) rotate(0)">200</text><text x="0" y="0" fill="#131300" font-size="14" dominant-baseline="middle" text-anchor="end" transform="translate(56.68359565734863, 165.24) rotate(0)">180</text><text x="0" y="0" fill="#131300" font-size="14" dominant-baseline="middle" text-anchor="end" transform="translate(56.68359565734863, 197.88) rotate(0)">160</text><text x="0" y="0" fill="#131300" font-size="14" dominant-baseline="middle" text-anchor="end" transform="translate(56.68359565734863, 230.51999999999998) rotate(0)">140</text><text x="0" y="0" fill="#131300" font-size="14" dominant-baseline="middle" text-anchor="end" transform="translate(56.68359565734863, 263.16) rotate(0)">120</text><text x="0" y="0" fill="#131300" font-size="14" dominant-baseline="middle" text-anchor="end" transform="translate(56.68359565734863, 295.79999999999995) rotate(0)">100</text><text x="0" y="0" fill="#131300" font-size="14" dominant-baseline="middle" text-anchor="end" transform="translate(56.68359565734863, 328.43999999999994) rotate(0)">80</text><text x="0" y="0" fill="#131300" font-size="14" dominant-baseline="middle" text-anchor="end" transform="translate(56.68359565734863, 361.08000000000004) rotate(0)">60</text><text x="0" y="0" fill="#131300" font-size="14" dominant-baseline="middle" text-anchor="end" transform="translate(56.68359565734863, 393.72) rotate(0)">40</text><text x="0" y="0" fill="#131300" font-size="14" dominant-baseline="middle" text-anchor="end" transform="translate(56.68359565734863, 426.36) rotate(0)">20</text><text x="0" y="0" fill="#131300" font-size="14" dominant-baseline="middle" text-anchor="end" transform="translate(56.68359565734863, 459) rotate(0)">0</text></g><g class="ticks"><path d="M 66.68359565734863,67.32000000000002 L 61.68359565734863,67.32000000000002" fill="none" stroke="#131300" stroke-width="2"/><path d="M 66.68359565734863,99.96000000000001 L 61.68359565734863,99.96000000000001" fill="none" stroke="#131300" stroke-width="2"/><path d="M 66.68359565734863,132.6 L 61.68359565734863,132.6" fill="none" stroke="#131300" stroke-width="2"/><path d="M 66.68359565734863,165.24 L 61.68359565734863,165.24" fill="none" stroke="#131300" stroke-width="2"/><path d="M 66.68359565734863,197.88 L 61.68359565734863,197.88" fill="none" stroke="#131300" stroke-width="2"/><path d="M 66.68359565734863,230.51999999999998 L 61.68359565734863,230.51999999999998" fill="none" stroke="#131300" stroke-width="2"/><path d="M 66.68359565734863,263.16 L 61.68359565734863,263.16" fill="none" stroke="#131300" stroke-width="2"/><path d="M 66.68359565734863,295.79999999999995 L 61.68359565734863,295.79999999999995" fill="none" stroke="#131300" stroke-width="2"/><path d="M 66.68359565734863,328.43999999999994 L 61.68359565734863,328.43999999999994" fill="none" stroke="#131300" stroke-width="2"/><path d="M 66.68359565734863,361.08000000000004 L 61.68359565734863,361.08000000000004" fill="none" stroke="#131300" stroke-width="2"/><path d="M 66.68359565734863,393.72 L 61.68359565734863,393.72" fill="none" stroke="#131300" stroke-width="2"/><path d="M 66.68359565734863,426.36 L 61.68359565734863,426.36" fill="none" stroke="#131300" stroke-width="2"/><path d="M 66.68359565734863,459 L 61.68359565734863,459" fill="none" stroke="#131300" stroke-width="2"/></g><g class="title"><text x="0" y="0" fill="#131300" font-size="16" dominant-baseline="text-before-edge" text-anchor="middle" transform="translate(5, 255) rotate(270)">CHF pro Person</text></g></g></g><g class="mermaid-tmp-group"/></svg>