<svg id="my-svg" width="100%" xmlns="http://www.w3.org/2000/svg" xmlns:xlink="http://www.w3.org/1999/xlink" style="max-width: 700px; background-color: white;" viewBox="0 0 700 500" role="graphics-document document" aria-roledescription="xychart"><style>#my-svg{font-family:"trebuchet ms",verdana,arial,sans-serif;font-size:16px;fill:#333;}@keyframes edge-animation-frame{from{stroke-dashoffset:0;}}@keyframes dash{to{stroke-dashoffset:0;}}#my-svg .edge-animation-slow{stroke-dasharray:9,5!important;stroke-dashoffset:900;animation:dash 50s linear infinite;stroke-linecap:round;}#my-svg .edge-animation-fast{stroke-dasharray:9,5!important;stroke-dashoffset:900;animation:dash 20s linear infinite;stroke-linecap:round;}#my-svg .error-icon{fill:#552222;}#my-svg .error-text{fill:#552222;stroke:#552222;}#my-svg .edge-thickness-normal{stroke-width:1px;}#my-svg .edge-thickness-thick{stroke-width:3.5px;}#my-svg .edge-pattern-solid{stroke-dasharray:0;}#my-svg .edge-thickness-invisible{stroke-width:0;fill:none;}#my-svg .edge-pattern-dashed{stroke-dasharray:3;}#my-svg .edge-pattern-dotted{stroke-dasharray:2;}#my-svg .marker{fill:#333333;stroke:#333333;}#my-svg .marker.cross{stroke:#333333;}#my-svg svg{font-family:"trebuchet ms",verdana,arial,sans-serif;font-size:16px;}#my-svg p{margin:0;}#my-svg .node .neo-node{stroke:#9370DB;}#my-svg [data-look="neo"].node rect,#my-svg [data-look="neo"].cluster rect,#my-svg [data-look="neo"].node polygon{stroke:#9370DB;filter:drop-shadow(1px 2px 2px rgba(185, 185, 185, 1));}#my-svg [data-look="neo"].node path{stroke:#9370DB;stroke-width:1px;}#my-svg [data-look="neo"].node .outer-path{filter:drop-shadow(1px 2px 2px rgba(185, 185, 185, 1));}#my-svg [data-look="neo"].node .neo-line path{stroke:#9370DB;filter:none;}#my-svg [data-look="neo"].node circle{stroke:#9370DB;filter:drop-shadow(1px 2px 2px rgba(185, 185, 185, 1));}#my-svg [data-look="neo"].node circle .state-start{fill:#000000;}#my-svg [data-look="neo"].icon-shape .icon{fill:#9370DB;filter:drop-shadow(1px 2px 2px rgba(185, 185, 185, 1));}#my-svg [data-look="neo"].icon-shape .icon-neo path{stroke:#9370DB;filter:drop-shadow(1px 2px 2px rgba(185, 185, 185, 1));}#my-svg :root{--mermaid-font-family:"trebuchet ms",verdana,arial,sans-serif;}</style><g/><g class="main"><rect width="700" height="500" class="background" fill="white"/><g class="chart-title"><text x="0" y="0" fill="#131300" font-size="20" dominant-baseline="middle" text-anchor="middle" transform="translate(350, 21) rotate(0)">Öffentliche Sicherheitskosten pro Person</text></g><g class="plot"><g class="line-plot-0"><path d="M75.465,448.775L126.203,274.95L176.941,290.288L227.679,423.213L278.417,377.2L329.155,351.638L379.893,136.913L430.631,208.487L481.369,351.638L532.107,310.737L582.845,177.813L633.583,234.05L684.321,90.9" fill="none" stroke="#ECECFF" stroke-width="2"/></g></g><g class="bottom-axis"><g class="axis-line"><path d="M 59.78613471984863,468 L 700,468" fill="none" stroke="#131300" stroke-width="2"/></g><g class="label"><text x="0" y="0" fill="#131300" font-size="14" dominant-baseline="text-before-edge" text-anchor="middle" transform="translate(75.46533393859863, 479) rotate(0)">2012</text><text x="0" y="0" fill="#131300" font-size="14" dominant-baseline="text-before-edge" text-anchor="middle" transform="translate(126.20328950881958, 479) rotate(0)">2013</text><text x="0" y="0" fill="#131300" font-size="14" dominant-baseline="text-before-edge" text-anchor="middle" transform="translate(176.94124507904053, 479) rotate(0)">2014</text><text x="0" y="0" fill="#131300" font-size="14" dominant-baseline="text-before-edge" text-anchor="middle" transform="translate(227.67920064926147, 479) rotate(0)">2015</text><text x="0" y="0" fill="#131300" font-size="14" dominant-baseline="text-before-edge" text-anchor="middle" transform="translate(278.4171562194824, 479) rotate(0)">2016</text><text x="0" y="0" fill="#131300" font-size="14" dominant-baseline="text-before-edge" text-anchor="middle" transform="translate(329.15511178970337, 479) rotate(0)">2017</text><text x="0" y="0" fill="#131300" font-size="14" dominant-baseline="text-before-edge" text-anchor="middle" transform="translate(379.8930673599243, 479) rotate(0)">2018</text><text x="0" y="0" fill="#131300" font-size="14" dominant-baseline="text-before-edge" text-anchor="middle" transform="translate(430.63102293014526, 479) rotate(0)">2019</text><text x="0" y="0" fill="#131300" font-size="14" dominant-baseline="text-before-edge" text-anchor="middle" transform="translate(481.3689785003662, 479) rotate(0)">2020</text><text x="0" y="0" fill="#131300" font-size="14" dominant-baseline="text-before-edge" text-anchor="middle" transform="translate(532.1069340705872, 479) rotate(0)">2021</text><text x="0" y="0" fill="#131300" font-size="14" dominant-baseline="text-before-edge" text-anchor="middle" transform="translate(582.8448896408081, 479) rotate(0)">2022</text><text x="0" y="0" fill="#131300" font-size="14" dominant-baseline="text-before-edge" text-anchor="middle" transform="translate(633.582845211029, 479) rotate(0)">2023</text><text x="0" y="0" fill="#131300" font-size="14" dominant-baseline="text-before-edge" text-anchor="middle" transform="translate(684.32080078125, 479) rotate(0)">2024</text></g><g class="ticks"><path d="M 75.46533393859863,469 L 75.46533393859863,474" fill="none" stroke="#131300" stroke-width="2"/><path d="M 126.20328950881958,469 L 126.20328950881958,474" fill="none" stroke="#131300" stroke-width="2"/><path d="M 176.94124507904053,469 L 176.94124507904053,474" fill="none" stroke="#131300" stroke-width="2"/><path d="M 227.67920064926147,469 L 227.67920064926147,474" fill="none" stroke="#131300" stroke-width="2"/><path d="M 278.4171562194824,469 L 278.4171562194824,474" fill="none" stroke="#131300" stroke-width="2"/><path d="M 329.15511178970337,469 L 329.15511178970337,474" fill="none" stroke="#131300" stroke-width="2"/><path d="M 379.8930673599243,469 L 379.8930673599243,474" fill="none" stroke="#131300" stroke-width="2"/><path d="M 430.63102293014526,469 L 430.63102293014526,474" fill="none" stroke="#131300" stroke-width="2"/><path d="M 481.3689785003662,469 L 481.3689785003662,474" fill="none" stroke="#131300" stroke-width="2"/><path d="M 532.1069340705872,469 L 532.1069340705872,474" fill="none" stroke="#131300" stroke-width="2"/><path d="M 582.8448896408081,469 L 582.8448896408081,474" fill="none" stroke="#131300" stroke-width="2"/><path d="M 633.582845211029,469 L 633.582845211029,474" fill="none" stroke="#131300" stroke-width="2"/><path d="M 684.32080078125,469 L 684.32080078125,474" fill="none" stroke="#131300" stroke-width="2"/></g></g><g class="left-axis"><g class="axisl-line"><path d="M 58.78613471984863,42 L 58.78613471984863,467" fill="none" stroke="#131300" stroke-width="2"/></g><g class="label"><text x="0" y="0" fill="#131300" font-size="14" dominant-baseline="middle" text-anchor="end" transform="translate(47.78613471984863, 50) rotate(0)">80</text><text x="0" y="0" fill="#131300" font-size="14" dominant-baseline="middle" text-anchor="end" transform="translate(47.78613471984863, 101.125) rotate(0)">70</text><text x="0" y="0" fill="#131300" font-size="14" dominant-baseline="middle" text-anchor="end" transform="translate(47.78613471984863, 152.25) rotate(0)">60</text><text x="0" y="0" fill="#131300" font-size="14" dominant-baseline="middle" text-anchor="end" transform="translate(47.78613471984863, 203.375) rotate(0)">50</text><text x="0" y="0" fill="#131300" font-size="14" dominant-baseline="middle" text-anchor="end" transform="translate(47.78613471984863, 254.5) rotate(0)">40</text><text x="0" y="0" fill="#131300" font-size="14" dominant-baseline="middle" text-anchor="end" transform="translate(47.78613471984863, 305.625) rotate(0)">30</text><text x="0" y="0" fill="#131300" font-size="14" dominant-baseline="middle" text-anchor="end" transform="translate(47.78613471984863, 356.75) rotate(0)">20</text><text x="0" y="0" fill="#131300" font-size="14" dominant-baseline="middle" text-anchor="end" transform="translate(47.78613471984863, 407.875) rotate(0)">10</text><text x="0" y="0" fill="#131300" font-size="14" dominant-baseline="middle" text-anchor="end" transform="translate(47.78613471984863, 459) rotate(0)">0</text></g><g class="ticks"><path d="M 57.78613471984863,50 L 52.78613471984863,50" fill="none" stroke="#131300" stroke-width="2"/><path d="M 57.78613471984863,101.125 L 52.78613471984863,101.125" fill="none" stroke="#131300" stroke-width="2"/><path d="M 57.78613471984863,152.25 L 52.78613471984863,152.25" fill="none" stroke="#131300" stroke-width="2"/><path d="M 57.78613471984863,203.375 L 52.78613471984863,203.375" fill="none" stroke="#131300" stroke-width="2"/><path d="M 57.78613471984863,254.5 L 52.78613471984863,254.5" fill="none" stroke="#131300" stroke-width="2"/><path d="M 57.78613471984863,305.625 L 52.78613471984863,305.625" fill="none" stroke="#131300" stroke-width="2"/><path d="M 57.78613471984863,356.75 L 52.78613471984863,356.75" fill="none" stroke="#131300" stroke-width="2"/><path d="M 57.78613471984863,407.875 L 52.78613471984863,407.875" fill="none" stroke="#131300" stroke-width="2"/><path d="M 57.78613471984863,459 L 52.78613471984863,459" fill="none" stroke="#131300" stroke-width="2"/></g><g class="title"><text x="0" y="0" fill="#131300" font-size="16" dominant-baseline="text-before-edge" text-anchor="middle" transform="translate(5, 254.5) rotate(270)">CHF pro Person</text></g></g></g><g class="mermaid-tmp-group"/></svg>