<svg id="my-svg" width="100%" xmlns="http://www.w3.org/2000/svg" xmlns:xlink="http://www.w3.org/1999/xlink" style="max-width: 700px; background-color: white;" viewBox="0 0 700 500" role="graphics-document document" aria-roledescription="xychart"><style>#my-svg{font-family:"trebuchet ms",verdana,arial,sans-serif;font-size:16px;fill:#333;}@keyframes edge-animation-frame{from{stroke-dashoffset:0;}}@keyframes dash{to{stroke-dashoffset:0;}}#my-svg .edge-animation-slow{stroke-dasharray:9,5!important;stroke-dashoffset:900;animation:dash 50s linear infinite;stroke-linecap:round;}#my-svg .edge-animation-fast{stroke-dasharray:9,5!important;stroke-dashoffset:900;animation:dash 20s linear infinite;stroke-linecap:round;}#my-svg .error-icon{fill:#552222;}#my-svg .error-text{fill:#552222;stroke:#552222;}#my-svg .edge-thickness-normal{stroke-width:1px;}#my-svg .edge-thickness-thick{stroke-width:3.5px;}#my-svg .edge-pattern-solid{stroke-dasharray:0;}#my-svg .edge-thickness-invisible{stroke-width:0;fill:none;}#my-svg .edge-pattern-dashed{stroke-dasharray:3;}#my-svg .edge-pattern-dotted{stroke-dasharray:2;}#my-svg .marker{fill:#333333;stroke:#333333;}#my-svg .marker.cross{stroke:#333333;}#my-svg svg{font-family:"trebuchet ms",verdana,arial,sans-serif;font-size:16px;}#my-svg p{margin:0;}#my-svg .node .neo-node{stroke:#9370DB;}#my-svg [data-look="neo"].node rect,#my-svg [data-look="neo"].cluster rect,#my-svg [data-look="neo"].node polygon{stroke:#9370DB;filter:drop-shadow(1px 2px 2px rgba(185, 185, 185, 1));}#my-svg [data-look="neo"].node path{stroke:#9370DB;stroke-width:1px;}#my-svg [data-look="neo"].node .outer-path{filter:drop-shadow(1px 2px 2px rgba(185, 185, 185, 1));}#my-svg [data-look="neo"].node .neo-line path{stroke:#9370DB;filter:none;}#my-svg [data-look="neo"].node circle{stroke:#9370DB;filter:drop-shadow(1px 2px 2px rgba(185, 185, 185, 1));}#my-svg [data-look="neo"].node circle .state-start{fill:#000000;}#my-svg [data-look="neo"].icon-shape .icon{fill:#9370DB;filter:drop-shadow(1px 2px 2px rgba(185, 185, 185, 1));}#my-svg [data-look="neo"].icon-shape .icon-neo path{stroke:#9370DB;filter:drop-shadow(1px 2px 2px rgba(185, 185, 185, 1));}#my-svg :root{--mermaid-font-family:"trebuchet ms",verdana,arial,sans-serif;}</style><g/><g class="main"><rect width="700" height="500" class="background" fill="white"/><g class="chart-title"><text x="0" y="0" fill="#131300" font-size="20" dominant-baseline="middle" text-anchor="middle" transform="translate(350, 21) rotate(0)">Verkehrskosten pro Person</text></g><g class="plot"><g class="line-plot-0"><path d="M83.251,325.145L133.341,322.915L183.43,296.887L233.519,61.898L283.608,217.318L333.697,241.858L383.786,166.751L433.875,341.505L483.964,386.124L534.053,351.173L584.143,406.945L634.232,408.433L684.321,398.022" fill="none" stroke="#ECECFF" stroke-width="2"/></g></g><g class="bottom-axis"><g class="axis-line"><path d="M 67.57226753234863,468 L 700,468" fill="none" stroke="#131300" stroke-width="2"/></g><g class="label"><text x="0" y="0" fill="#131300" font-size="14" dominant-baseline="text-before-edge" text-anchor="middle" transform="translate(83.25146675109863, 479) rotate(0)">2012</text><text x="0" y="0" fill="#131300" font-size="14" dominant-baseline="text-before-edge" text-anchor="middle" transform="translate(133.34057792027792, 479) rotate(0)">2013</text><text x="0" y="0" fill="#131300" font-size="14" dominant-baseline="text-before-edge" text-anchor="middle" transform="translate(183.4296890894572, 479) rotate(0)">2014</text><text x="0" y="0" fill="#131300" font-size="14" dominant-baseline="text-before-edge" text-anchor="middle" transform="translate(233.51880025863647, 479) rotate(0)">2015</text><text x="0" y="0" fill="#131300" font-size="14" dominant-baseline="text-before-edge" text-anchor="middle" transform="translate(283.6079114278158, 479) rotate(0)">2016</text><text x="0" y="0" fill="#131300" font-size="14" dominant-baseline="text-before-edge" text-anchor="middle" transform="translate(333.69702259699505, 479) rotate(0)">2017</text><text x="0" y="0" fill="#131300" font-size="14" dominant-baseline="text-before-edge" text-anchor="middle" transform="translate(383.7861337661743, 479) rotate(0)">2018</text><text x="0" y="0" fill="#131300" font-size="14" dominant-baseline="text-before-edge" text-anchor="middle" transform="translate(433.87524493535363, 479) rotate(0)">2019</text><text x="0" y="0" fill="#131300" font-size="14" dominant-baseline="text-before-edge" text-anchor="middle" transform="translate(483.9643561045329, 479) rotate(0)">2020</text><text x="0" y="0" fill="#131300" font-size="14" dominant-baseline="text-before-edge" text-anchor="middle" transform="translate(534.0534672737122, 479) rotate(0)">2021</text><text x="0" y="0" fill="#131300" font-size="14" dominant-baseline="text-before-edge" text-anchor="middle" transform="translate(584.1425784428915, 479) rotate(0)">2022</text><text x="0" y="0" fill="#131300" font-size="14" dominant-baseline="text-before-edge" text-anchor="middle" transform="translate(634.2316896120708, 479) rotate(0)">2023</text><text x="0" y="0" fill="#131300" font-size="14" dominant-baseline="text-before-edge" text-anchor="middle" transform="translate(684.32080078125, 479) rotate(0)">2024</text></g><g class="ticks"><path d="M 83.25146675109863,469 L 83.25146675109863,474" fill="none" stroke="#131300" stroke-width="2"/><path d="M 133.34057792027792,469 L 133.34057792027792,474" fill="none" stroke="#131300" stroke-width="2"/><path d="M 183.4296890894572,469 L 183.4296890894572,474" fill="none" stroke="#131300" stroke-width="2"/><path d="M 233.51880025863647,469 L 233.51880025863647,474" fill="none" stroke="#131300" stroke-width="2"/><path d="M 283.6079114278158,469 L 283.6079114278158,474" fill="none" stroke="#131300" stroke-width="2"/><path d="M 333.69702259699505,469 L 333.69702259699505,474" fill="none" stroke="#131300" stroke-width="2"/><path d="M 383.7861337661743,469 L 383.7861337661743,474" fill="none" stroke="#131300" stroke-width="2"/><path d="M 433.87524493535363,469 L 433.87524493535363,474" fill="none" stroke="#131300" stroke-width="2"/><path d="M 483.9643561045329,469 L 483.9643561045329,474" fill="none" stroke="#131300" stroke-width="2"/><path d="M 534.0534672737122,469 L 534.0534672737122,474" fill="none" stroke="#131300" stroke-width="2"/><path d="M 584.1425784428915,469 L 584.1425784428915,474" fill="none" stroke="#131300" stroke-width="2"/><path d="M 634.2316896120708,469 L 634.2316896120708,474" fill="none" stroke="#131300" stroke-width="2"/><path d="M 684.32080078125,469 L 684.32080078125,474" fill="none" stroke="#131300" stroke-width="2"/></g></g><g class="left-axis"><g class="axisl-line"><path d="M 66.57226753234863,42 L 66.57226753234863,467" fill="none" stroke="#131300" stroke-width="2"/></g><g class="label"><text x="0" y="0" fill="#131300" font-size="14" dominant-baseline="middle" text-anchor="end" transform="translate(55.57226753234863, 50) rotate(0)">550</text><text x="0" y="0" fill="#131300" font-size="14" dominant-baseline="middle" text-anchor="end" transform="translate(55.57226753234863, 87.18181818181819) rotate(0)">500</text><text x="0" y="0" fill="#131300" font-size="14" dominant-baseline="middle" text-anchor="end" transform="translate(55.57226753234863, 124.36363636363635) rotate(0)">450</text><text x="0" y="0" fill="#131300" font-size="14" dominant-baseline="middle" text-anchor="end" transform="translate(55.57226753234863, 161.54545454545453) rotate(0)">400</text><text x="0" y="0" fill="#131300" font-size="14" dominant-baseline="middle" text-anchor="end" transform="translate(55.57226753234863, 198.72727272727272) rotate(0)">350</text><text x="0" y="0" fill="#131300" font-size="14" dominant-baseline="middle" text-anchor="end" transform="translate(55.57226753234863, 235.90909090909093) rotate(0)">300</text><text x="0" y="0" fill="#131300" font-size="14" dominant-baseline="middle" text-anchor="end" transform="translate(55.57226753234863, 273.09090909090907) rotate(0)">250</text><text x="0" y="0" fill="#131300" font-size="14" dominant-baseline="middle" text-anchor="end" transform="translate(55.57226753234863, 310.27272727272725) rotate(0)">200</text><text x="0" y="0" fill="#131300" font-size="14" dominant-baseline="middle" text-anchor="end" transform="translate(55.57226753234863, 347.45454545454544) rotate(0)">150</text><text x="0" y="0" fill="#131300" font-size="14" dominant-baseline="middle" text-anchor="end" transform="translate(55.57226753234863, 384.63636363636357) rotate(0)">100</text><text x="0" y="0" fill="#131300" font-size="14" dominant-baseline="middle" text-anchor="end" transform="translate(55.57226753234863, 421.8181818181818) rotate(0)">50</text><text x="0" y="0" fill="#131300" font-size="14" dominant-baseline="middle" text-anchor="end" transform="translate(55.57226753234863, 459) rotate(0)">0</text></g><g class="ticks"><path d="M 65.57226753234863,50 L 60.57226753234863,50" fill="none" stroke="#131300" stroke-width="2"/><path d="M 65.57226753234863,87.18181818181819 L 60.57226753234863,87.18181818181819" fill="none" stroke="#131300" stroke-width="2"/><path d="M 65.57226753234863,124.36363636363635 L 60.57226753234863,124.36363636363635" fill="none" stroke="#131300" stroke-width="2"/><path d="M 65.57226753234863,161.54545454545453 L 60.57226753234863,161.54545454545453" fill="none" stroke="#131300" stroke-width="2"/><path d="M 65.57226753234863,198.72727272727272 L 60.57226753234863,198.72727272727272" fill="none" stroke="#131300" stroke-width="2"/><path d="M 65.57226753234863,235.90909090909093 L 60.57226753234863,235.90909090909093" fill="none" stroke="#131300" stroke-width="2"/><path d="M 65.57226753234863,273.09090909090907 L 60.57226753234863,273.09090909090907" fill="none" stroke="#131300" stroke-width="2"/><path d="M 65.57226753234863,310.27272727272725 L 60.57226753234863,310.27272727272725" fill="none" stroke="#131300" stroke-width="2"/><path d="M 65.57226753234863,347.45454545454544 L 60.57226753234863,347.45454545454544" fill="none" stroke="#131300" stroke-width="2"/><path d="M 65.57226753234863,384.63636363636357 L 60.57226753234863,384.63636363636357" fill="none" stroke="#131300" stroke-width="2"/><path d="M 65.57226753234863,421.8181818181818 L 60.57226753234863,421.8181818181818" fill="none" stroke="#131300" stroke-width="2"/><path d="M 65.57226753234863,459 L 60.57226753234863,459" fill="none" stroke="#131300" stroke-width="2"/></g><g class="title"><text x="0" y="0" fill="#131300" font-size="16" dominant-baseline="text-before-edge" text-anchor="middle" transform="translate(5, 254.5) rotate(270)">CHF pro Person</text></g></g></g><g class="mermaid-tmp-group"/></svg>