<svg id="my-svg" width="100%" xmlns="http://www.w3.org/2000/svg" xmlns:xlink="http://www.w3.org/1999/xlink" style="max-width: 700px; background-color: white;" viewBox="0 0 700 500" role="graphics-document document" aria-roledescription="xychart"><style>#my-svg{font-family:"trebuchet ms",verdana,arial,sans-serif;font-size:16px;fill:#333;}@keyframes edge-animation-frame{from{stroke-dashoffset:0;}}@keyframes dash{to{stroke-dashoffset:0;}}#my-svg .edge-animation-slow{stroke-dasharray:9,5!important;stroke-dashoffset:900;animation:dash 50s linear infinite;stroke-linecap:round;}#my-svg .edge-animation-fast{stroke-dasharray:9,5!important;stroke-dashoffset:900;animation:dash 20s linear infinite;stroke-linecap:round;}#my-svg .error-icon{fill:#552222;}#my-svg .error-text{fill:#552222;stroke:#552222;}#my-svg .edge-thickness-normal{stroke-width:1px;}#my-svg .edge-thickness-thick{stroke-width:3.5px;}#my-svg .edge-pattern-solid{stroke-dasharray:0;}#my-svg .edge-thickness-invisible{stroke-width:0;fill:none;}#my-svg .edge-pattern-dashed{stroke-dasharray:3;}#my-svg .edge-pattern-dotted{stroke-dasharray:2;}#my-svg .marker{fill:#333333;stroke:#333333;}#my-svg .marker.cross{stroke:#333333;}#my-svg svg{font-family:"trebuchet ms",verdana,arial,sans-serif;font-size:16px;}#my-svg p{margin:0;}#my-svg :root{--mermaid-font-family:"trebuchet ms",verdana,arial,sans-serif;}</style><g/><g class="main"><rect width="700" height="500" class="background" fill="white"/><g class="chart-title"><text x="0" y="0" fill="#131300" font-size="20" dominant-baseline="middle" text-anchor="middle" transform="translate(350, 22) rotate(0)">Gesundheitskosten pro Person</text></g><g class="plot"><g class="line-plot-0"><path d="M90.595,190.38L238.481,169.216L386.367,201.776L534.253,175.728L682.139,73.164" fill="none" stroke="#ECECFF" stroke-width="2"/></g></g><g class="bottom-axis"><g class="axis-line"><path d="M 72.73437690734863,468 L 700,468" fill="none" stroke="#131300" stroke-width="2"/></g><g class="label"><text x="0" y="0" fill="#131300" font-size="14" dominant-baseline="text-before-edge" text-anchor="middle" transform="translate(90.59521675109863, 479) rotate(0)">2020</text><text x="0" y="0" fill="#131300" font-size="14" dominant-baseline="text-before-edge" text-anchor="middle" transform="translate(238.48120260238647, 479) rotate(0)">2021</text><text x="0" y="0" fill="#131300" font-size="14" dominant-baseline="text-before-edge" text-anchor="middle" transform="translate(386.3671884536743, 479) rotate(0)">2022</text><text x="0" y="0" fill="#131300" font-size="14" dominant-baseline="text-before-edge" text-anchor="middle" transform="translate(534.2531743049622, 479) rotate(0)">2023</text><text x="0" y="0" fill="#131300" font-size="14" dominant-baseline="text-before-edge" text-anchor="middle" transform="translate(682.13916015625, 479) rotate(0)">2024</text></g><g class="ticks"><path d="M 90.59521675109863,469 L 90.59521675109863,474" fill="none" stroke="#131300" stroke-width="2"/><path d="M 238.48120260238647,469 L 238.48120260238647,474" fill="none" stroke="#131300" stroke-width="2"/><path d="M 386.3671884536743,469 L 386.3671884536743,474" fill="none" stroke="#131300" stroke-width="2"/><path d="M 534.2531743049622,469 L 534.2531743049622,474" fill="none" stroke="#131300" stroke-width="2"/><path d="M 682.13916015625,469 L 682.13916015625,474" fill="none" stroke="#131300" stroke-width="2"/></g></g><g class="left-axis"><g class="axisl-line"><path d="M 71.73437690734863,44 L 71.73437690734863,467" fill="none" stroke="#131300" stroke-width="2"/></g><g class="label"><text x="0" y="0" fill="#131300" font-size="14" dominant-baseline="middle" text-anchor="end" transform="translate(60.73437690734863, 68.28000000000002) rotate(0)">240</text><text x="0" y="0" fill="#131300" font-size="14" dominant-baseline="middle" text-anchor="end" transform="translate(60.73437690734863, 100.84) rotate(0)">220</text><text x="0" y="0" fill="#131300" font-size="14" dominant-baseline="middle" text-anchor="end" transform="translate(60.73437690734863, 133.39999999999998) rotate(0)">200</text><text x="0" y="0" fill="#131300" font-size="14" dominant-baseline="middle" text-anchor="end" transform="translate(60.73437690734863, 165.96) rotate(0)">180</text><text x="0" y="0" fill="#131300" font-size="14" dominant-baseline="middle" text-anchor="end" transform="translate(60.73437690734863, 198.51999999999998) rotate(0)">160</text><text x="0" y="0" fill="#131300" font-size="14" dominant-baseline="middle" text-anchor="end" transform="translate(60.73437690734863, 231.07999999999998) rotate(0)">140</text><text x="0" y="0" fill="#131300" font-size="14" dominant-baseline="middle" text-anchor="end" transform="translate(60.73437690734863, 263.64) rotate(0)">120</text><text x="0" y="0" fill="#131300" font-size="14" dominant-baseline="middle" text-anchor="end" transform="translate(60.73437690734863, 296.2) rotate(0)">100</text><text x="0" y="0" fill="#131300" font-size="14" dominant-baseline="middle" text-anchor="end" transform="translate(60.73437690734863, 328.75999999999993) rotate(0)">80</text><text x="0" y="0" fill="#131300" font-size="14" dominant-baseline="middle" text-anchor="end" transform="translate(60.73437690734863, 361.32000000000005) rotate(0)">60</text><text x="0" y="0" fill="#131300" font-size="14" dominant-baseline="middle" text-anchor="end" transform="translate(60.73437690734863, 393.88) rotate(0)">40</text><text x="0" y="0" fill="#131300" font-size="14" dominant-baseline="middle" text-anchor="end" transform="translate(60.73437690734863, 426.44000000000005) rotate(0)">20</text><text x="0" y="0" fill="#131300" font-size="14" dominant-baseline="middle" text-anchor="end" transform="translate(60.73437690734863, 459) rotate(0)">0</text></g><g class="ticks"><path d="M 70.73437690734863,68.28000000000002 L 65.73437690734863,68.28000000000002" fill="none" stroke="#131300" stroke-width="2"/><path d="M 70.73437690734863,100.84 L 65.73437690734863,100.84" fill="none" stroke="#131300" stroke-width="2"/><path d="M 70.73437690734863,133.39999999999998 L 65.73437690734863,133.39999999999998" fill="none" stroke="#131300" stroke-width="2"/><path d="M 70.73437690734863,165.96 L 65.73437690734863,165.96" fill="none" stroke="#131300" stroke-width="2"/><path d="M 70.73437690734863,198.51999999999998 L 65.73437690734863,198.51999999999998" fill="none" stroke="#131300" stroke-width="2"/><path d="M 70.73437690734863,231.07999999999998 L 65.73437690734863,231.07999999999998" fill="none" stroke="#131300" stroke-width="2"/><path d="M 70.73437690734863,263.64 L 65.73437690734863,263.64" fill="none" stroke="#131300" stroke-width="2"/><path d="M 70.73437690734863,296.2 L 65.73437690734863,296.2" fill="none" stroke="#131300" stroke-width="2"/><path d="M 70.73437690734863,328.75999999999993 L 65.73437690734863,328.75999999999993" fill="none" stroke="#131300" stroke-width="2"/><path d="M 70.73437690734863,361.32000000000005 L 65.73437690734863,361.32000000000005" fill="none" stroke="#131300" stroke-width="2"/><path d="M 70.73437690734863,393.88 L 65.73437690734863,393.88" fill="none" stroke="#131300" stroke-width="2"/><path d="M 70.73437690734863,426.44000000000005 L 65.73437690734863,426.44000000000005" fill="none" stroke="#131300" stroke-width="2"/><path d="M 70.73437690734863,459 L 65.73437690734863,459" fill="none" stroke="#131300" stroke-width="2"/></g><g class="title"><text x="0" y="0" fill="#131300" font-size="16" dominant-baseline="text-before-edge" text-anchor="middle" transform="translate(5, 255.5) rotate(270)">CHF pro Person</text></g></g></g><g class="mermaid-tmp-group"/></svg>