<svg id="my-svg" width="100%" xmlns="http://www.w3.org/2000/svg" xmlns:xlink="http://www.w3.org/1999/xlink" style="max-width: 700px; background-color: white;" viewBox="0 0 700 500" role="graphics-document document" aria-roledescription="xychart"><style>#my-svg{font-family:"trebuchet ms",verdana,arial,sans-serif;font-size:16px;fill:#333;}@keyframes edge-animation-frame{from{stroke-dashoffset:0;}}@keyframes dash{to{stroke-dashoffset:0;}}#my-svg .edge-animation-slow{stroke-dasharray:9,5!important;stroke-dashoffset:900;animation:dash 50s linear infinite;stroke-linecap:round;}#my-svg .edge-animation-fast{stroke-dasharray:9,5!important;stroke-dashoffset:900;animation:dash 20s linear infinite;stroke-linecap:round;}#my-svg .error-icon{fill:#552222;}#my-svg .error-text{fill:#552222;stroke:#552222;}#my-svg .edge-thickness-normal{stroke-width:1px;}#my-svg .edge-thickness-thick{stroke-width:3.5px;}#my-svg .edge-pattern-solid{stroke-dasharray:0;}#my-svg .edge-thickness-invisible{stroke-width:0;fill:none;}#my-svg .edge-pattern-dashed{stroke-dasharray:3;}#my-svg .edge-pattern-dotted{stroke-dasharray:2;}#my-svg .marker{fill:#333333;stroke:#333333;}#my-svg .marker.cross{stroke:#333333;}#my-svg svg{font-family:"trebuchet ms",verdana,arial,sans-serif;font-size:16px;}#my-svg p{margin:0;}#my-svg :root{--mermaid-font-family:"trebuchet ms",verdana,arial,sans-serif;}</style><g/><g class="main"><rect width="700" height="500" class="background" fill="white"/><g class="chart-title"><text x="0" y="0" fill="#131300" font-size="20" dominant-baseline="middle" text-anchor="middle" transform="translate(350, 21.5) rotate(0)">Fremdkapital</text></g><g class="plot"><g class="line-plot-0"><path d="M77.354,71.298L229.263,67.912L381.171,94.034L533.079,109.834L684.987,79.988" fill="none" stroke="#ECECFF" stroke-width="2"/></g></g><g class="bottom-axis"><g class="axis-line"><path d="M 62.34179878234863,468 L 700,468" fill="none" stroke="#131300" stroke-width="2"/></g><g class="label"><text x="0" y="0" fill="#131300" font-size="14" dominant-baseline="text-before-edge" text-anchor="middle" transform="translate(77.35449409484863, 479) rotate(0)">2020</text><text x="0" y="0" fill="#131300" font-size="14" dominant-baseline="text-before-edge" text-anchor="middle" transform="translate(229.26269674301147, 479) rotate(0)">2021</text><text x="0" y="0" fill="#131300" font-size="14" dominant-baseline="text-before-edge" text-anchor="middle" transform="translate(381.1708993911743, 479) rotate(0)">2022</text><text x="0" y="0" fill="#131300" font-size="14" dominant-baseline="text-before-edge" text-anchor="middle" transform="translate(533.0791020393372, 479) rotate(0)">2023</text><text x="0" y="0" fill="#131300" font-size="14" dominant-baseline="text-before-edge" text-anchor="middle" transform="translate(684.9873046875, 479) rotate(0)">2024</text></g><g class="ticks"><path d="M 77.35449409484863,469 L 77.35449409484863,474" fill="none" stroke="#131300" stroke-width="2"/><path d="M 229.26269674301147,469 L 229.26269674301147,474" fill="none" stroke="#131300" stroke-width="2"/><path d="M 381.1708993911743,469 L 381.1708993911743,474" fill="none" stroke="#131300" stroke-width="2"/><path d="M 533.0791020393372,469 L 533.0791020393372,474" fill="none" stroke="#131300" stroke-width="2"/><path d="M 684.9873046875,469 L 684.9873046875,474" fill="none" stroke="#131300" stroke-width="2"/></g></g><g class="left-axis"><g class="axisl-line"><path d="M 61.34179878234863,43 L 61.34179878234863,467" fill="none" stroke="#131300" stroke-width="2"/></g><g class="label"><text x="0" y="0" fill="#131300" font-size="14" dominant-baseline="middle" text-anchor="end" transform="translate(50.34179878234863, 51) rotate(0)">40</text><text x="0" y="0" fill="#131300" font-size="14" dominant-baseline="middle" text-anchor="end" transform="translate(50.34179878234863, 102) rotate(0)">35</text><text x="0" y="0" fill="#131300" font-size="14" dominant-baseline="middle" text-anchor="end" transform="translate(50.34179878234863, 153) rotate(0)">30</text><text x="0" y="0" fill="#131300" font-size="14" dominant-baseline="middle" text-anchor="end" transform="translate(50.34179878234863, 204) rotate(0)">25</text><text x="0" y="0" fill="#131300" font-size="14" dominant-baseline="middle" text-anchor="end" transform="translate(50.34179878234863, 255) rotate(0)">20</text><text x="0" y="0" fill="#131300" font-size="14" dominant-baseline="middle" text-anchor="end" transform="translate(50.34179878234863, 306) rotate(0)">15</text><text x="0" y="0" fill="#131300" font-size="14" dominant-baseline="middle" text-anchor="end" transform="translate(50.34179878234863, 357) rotate(0)">10</text><text x="0" y="0" fill="#131300" font-size="14" dominant-baseline="middle" text-anchor="end" transform="translate(50.34179878234863, 408) rotate(0)">5</text><text x="0" y="0" fill="#131300" font-size="14" dominant-baseline="middle" text-anchor="end" transform="translate(50.34179878234863, 459) rotate(0)">0</text></g><g class="ticks"><path d="M 60.34179878234863,51 L 55.34179878234863,51" fill="none" stroke="#131300" stroke-width="2"/><path d="M 60.34179878234863,102 L 55.34179878234863,102" fill="none" stroke="#131300" stroke-width="2"/><path d="M 60.34179878234863,153 L 55.34179878234863,153" fill="none" stroke="#131300" stroke-width="2"/><path d="M 60.34179878234863,204 L 55.34179878234863,204" fill="none" stroke="#131300" stroke-width="2"/><path d="M 60.34179878234863,255 L 55.34179878234863,255" fill="none" stroke="#131300" stroke-width="2"/><path d="M 60.34179878234863,306 L 55.34179878234863,306" fill="none" stroke="#131300" stroke-width="2"/><path d="M 60.34179878234863,357 L 55.34179878234863,357" fill="none" stroke="#131300" stroke-width="2"/><path d="M 60.34179878234863,408 L 55.34179878234863,408" fill="none" stroke="#131300" stroke-width="2"/><path d="M 60.34179878234863,459 L 55.34179878234863,459" fill="none" stroke="#131300" stroke-width="2"/></g><g class="title"><text x="0" y="0" fill="#131300" font-size="16" dominant-baseline="text-before-edge" text-anchor="middle" transform="translate(5, 255) rotate(270)">Millionen CHF</text></g></g></g><g class="mermaid-tmp-group"/></svg>